<?xml version="1.0" encoding="UTF-8"?>
<svg version="1.1" xmlns="http://www.w3.org/2000/svg" width="265" height="190">
<path d="M0 0 C7.69348295 0.07051054 13.2893734 1.60903741 19.109375 6.73828125 C25.39077542 14.24106508 27.40296796 26.09874366 28.5625 35.375 C61.2325 35.375 93.9025 35.375 127.5625 35.375 C127.5625 39.335 127.5625 43.295 127.5625 47.375 C115.0225 47.375 102.4825 47.375 89.5625 47.375 C90.0575 51.335 90.0575 51.335 90.5625 55.375 C91.26761719 55.05273438 91.97273438 54.73046875 92.69921875 54.3984375 C98.77051397 52.22834289 106.01477629 52.27855082 111.9375 54.9375 C116.85360421 57.81121436 120.75745604 61.95986812 122.5625 67.375 C123.20554336 75.08097865 123.38323973 82.01036324 118.5625 88.375 C112.86165988 94.07584012 107.46103843 95.55399181 99.625 95.5625 C97.60376679 95.51464668 95.5826352 95.45702053 93.5625 95.375 C93.5352585 93.95844207 93.51599533 92.54172955 93.5 91.125 C93.48839844 90.33609375 93.47679687 89.5471875 93.46484375 88.734375 C93.55864694 86.46808998 93.93008937 84.5461105 94.5625 82.375 C95.50222656 82.24544922 95.50222656 82.24544922 96.4609375 82.11328125 C101.56332368 81.41068416 101.56332368 81.41068416 105.1875 78.125 C105.62952598 74.88347618 105.47130944 72.52087885 104.5625 69.375 C100.86763897 66.91175931 98.92956908 66.98508312 94.5625 67.375 C92.48878427 68.75747715 91.79514235 69.67882678 91.01196289 72.02246094 C90.39348476 75.25964469 90.32690797 78.48075451 90.24609375 81.765625 C90.22531265 82.47023865 90.20453156 83.17485229 90.18312073 83.90081787 C90.11796163 86.14211681 90.05889752 88.38352864 90 90.625 C89.95678274 92.14844897 89.91316743 93.67188671 89.86914062 95.1953125 C89.76156885 98.92176119 89.6622465 102.6483008 89.5625 106.375 C84.2825 106.375 79.0025 106.375 73.5625 106.375 C73.5625 102.415 73.5625 98.455 73.5625 94.375 C71.9125 95.035 70.2625 95.695 68.5625 96.375 C61.591 97.33874417 55.46251343 95.9541672 49.61328125 92.0859375 C45.5394428 88.89177486 42.60382829 85.56304631 41.5625 80.375 C40.78395082 72.76468179 40.61964981 65.58298446 45.5625 59.375 C50.43017899 54.21631846 56.62957774 52.71342717 63.5625 52.375 C66.73462617 52.76407752 69.48100832 53.46570737 72.5625 54.375 C72.8925 52.065 73.2225 49.755 73.5625 47.375 C59.3725 47.375 45.1825 47.375 30.5625 47.375 C30.5625 52.985 30.5625 58.595 30.5625 64.375 C28.49226563 64.43558594 26.42203125 64.49617188 24.2890625 64.55859375 C22.28677335 64.62116529 20.28448506 64.68376944 18.28222656 64.74731445 C16.8893741 64.79065846 15.49646869 64.83233396 14.10351562 64.87231445 C12.10273349 64.93002932 10.10214141 64.99421869 8.1015625 65.05859375 C6.89709473 65.09525146 5.69262695 65.13190918 4.45166016 65.16967773 C1.62253633 65.18552987 1.62253633 65.18552987 -0.4375 66.375 C-0.1075 68.025 0.2225 69.675 0.5625 71.375 C1.32691406 71.32859375 2.09132812 71.2821875 2.87890625 71.234375 C12.05353924 70.92524176 23.15405307 71.3210163 30.80859375 77.05859375 C34.38514593 81.04683539 35.41926088 84.44127182 35.8125 89.75 C35.35975876 96.314748 32.45997984 99.83275547 27.76953125 104.078125 C21.92706101 107.51122256 15.2912431 107.73631181 8.6875 107.6875 C7.50232788 107.68012817 7.50232788 107.68012817 6.29321289 107.67260742 C-3.09512868 107.4844353 -11.80012221 105.08128682 -19.4375 99.375 C-20.4375 96.375 -20.4375 96.375 -19.44140625 94.11328125 C-18.96574219 93.31277344 -18.49007812 92.51226562 -18 91.6875 C-17.52691406 90.87925781 -17.05382812 90.07101563 -16.56640625 89.23828125 C-16.19386719 88.62339844 -15.82132812 88.00851563 -15.4375 87.375 C-11.57182317 88.2184204 -8.22830907 89.77380125 -4.65625 91.4375 C-0.32762957 93.26649455 3.42009779 93.53573719 8.125 93.5625 C9.82849609 93.58376953 9.82849609 93.58376953 11.56640625 93.60546875 C14.7449443 93.60671839 14.7449443 93.60671839 17.5625 91.375 C17.2325 89.725 16.9025 88.075 16.5625 86.375 C13.52364499 85.36204833 11.42817275 85.24120837 8.25 85.25 C7.26644531 85.25 6.28289062 85.25 5.26953125 85.25 C2.45713613 85.27816935 2.45713613 85.27816935 -0.5625 86.25 C-5.49322109 86.46437918 -8.79865825 83.4710311 -12.4375 80.375 C-16.9093866 75.82911055 -18.4375 71.73015442 -18.4375 65.375 C-16.72692318 59.97317848 -14.51956534 56.22904199 -9.62011719 53.28173828 C-7.06683841 52.22101374 -5.21140078 52.14604999 -2.453125 52.1796875 C-1.05126953 52.18935547 -1.05126953 52.18935547 0.37890625 52.19921875 C1.34699219 52.21597656 2.31507813 52.23273437 3.3125 52.25 C4.29605469 52.25902344 5.27960938 52.26804688 6.29296875 52.27734375 C8.71639407 52.30087215 11.13932222 52.33374632 13.5625 52.375 C13.5625 50.725 13.5625 49.075 13.5625 47.375 C1.3525 47.375 -10.8575 47.375 -23.4375 47.375 C-23.4375 43.415 -23.4375 39.455 -23.4375 35.375 C-12.2175 35.045 -0.9975 34.715 10.5625 34.375 C5.60645277 31.40137166 3.18875605 30.9845225 -2.25 31.1875 C-2.94287109 31.20103516 -3.63574219 31.21457031 -4.34960938 31.22851562 C-6.04591265 31.26361155 -7.74181136 31.31741057 -9.4375 31.375 C-10.4275 27.745 -11.4175 24.115 -12.4375 20.375 C-6.64269167 17.47759584 -1.83984942 16.72302159 4.49609375 18.49609375 C8.31062687 20.11853222 11.41738401 22.71503488 14.5625 25.375 C14.5625 21.85267483 13.99518519 21.31748672 11.75 18.75 C10.96689453 17.83347656 10.96689453 17.83347656 10.16796875 16.8984375 C7.09140678 13.97907212 3.94407361 14.29042853 -0.0625 14.375 C-1.85377183 14.41261201 -3.64644134 14.42167254 -5.4375 14.375 C-7.24457581 12.56792419 -6.86057598 9.82116525 -7.0625 7.375 C-7.15789062 6.281875 -7.25328125 5.18875 -7.3515625 4.0625 C-7.37992188 3.175625 -7.40828125 2.28875 -7.4375 1.375 C-5.5494684 -0.5130316 -2.52589623 0.07069247 0 0 Z M16.5625 27.375 C16.8925 28.365 17.2225 29.355 17.5625 30.375 C17.5625 29.385 17.5625 28.395 17.5625 27.375 C17.2325 27.375 16.9025 27.375 16.5625 27.375 Z M60.5625 67.375 C57.97632822 70.39220042 57.5625 71.93775589 57.5625 75.9375 C58.33367466 79.43340834 58.33367466 79.43340834 60.625 81.875 C64.8355639 84.02507518 66.99367688 83.4984811 71.5625 82.375 C73.91369399 78.84820901 73.77693452 77.34620515 73.6875 73.1875 C73.66945313 72.10082031 73.65140625 71.01414062 73.6328125 69.89453125 C73.60960937 69.06308594 73.58640625 68.23164062 73.5625 67.375 C66.89573081 65.1240983 66.89573081 65.1240983 60.5625 67.375 Z " fill="#061768" transform="translate(137.4375,-0.37499999999999994)"/>
<path d="M0 0 C10.65145201 6.54036527 16.26272698 15.6131226 20.00390625 27.23046875 C20.00390625 28.55046875 20.00390625 29.87046875 20.00390625 31.23046875 C22.64390625 31.56046875 25.28390625 31.89046875 28.00390625 32.23046875 C28.00390625 36.52046875 28.00390625 40.81046875 28.00390625 45.23046875 C25.36390625 45.23046875 22.72390625 45.23046875 20.00390625 45.23046875 C20.00390625 50.51046875 20.00390625 55.79046875 20.00390625 61.23046875 C15.05390625 61.23046875 10.10390625 61.23046875 5.00390625 61.23046875 C5.00390625 55.95046875 5.00390625 50.67046875 5.00390625 45.23046875 C0.38390625 45.23046875 -4.23609375 45.23046875 -8.99609375 45.23046875 C-8.99609375 64.37046875 -8.99609375 83.51046875 -8.99609375 103.23046875 C-13.94609375 103.23046875 -18.89609375 103.23046875 -23.99609375 103.23046875 C-23.99609375 93.00046875 -23.99609375 82.77046875 -23.99609375 72.23046875 C-24.98609375 72.72546875 -24.98609375 72.72546875 -25.99609375 73.23046875 C-31.23613953 73.66378023 -36.13437047 73.30594922 -41.24609375 72.10546875 C-45.41688366 71.15816 -48.0359675 71.35461947 -51.99609375 73.23046875 C-47.21322516 80.45859813 -41.9247002 86.9119993 -35.99609375 93.23046875 C-37.40300859 96.55920025 -39.00300956 98.36214247 -41.87109375 100.54296875 C-42.54914062 101.07535156 -43.2271875 101.60773438 -43.92578125 102.15625 C-45.99609375 103.23046875 -45.99609375 103.23046875 -47.92456055 103.03100586 C-50.57914572 102.00515026 -51.50754413 100.76519261 -53.2109375 98.49609375 C-53.80890137 97.70412598 -54.40686523 96.9121582 -55.02294922 96.09619141 C-55.65346191 95.23300293 -56.28397461 94.36981445 -56.93359375 93.48046875 C-57.58730957 92.59536621 -58.24102539 91.71026367 -58.91455078 90.79833984 C-63.64263551 84.30364272 -68.10009039 77.65866608 -72.37109375 70.85546875 C-72.924021 69.9830957 -73.47694824 69.11072266 -74.04663086 68.21191406 C-78.88810977 60.31342883 -78.88810977 60.31342883 -78.99609375 55.23046875 C-77.49609375 52.41796875 -77.49609375 52.41796875 -74.99609375 50.23046875 C-71.24609375 49.41796875 -71.24609375 49.41796875 -67.99609375 49.23046875 C-65.68609375 52.53046875 -63.37609375 55.83046875 -60.99609375 59.23046875 C-58.52109375 58.73546875 -58.52109375 58.73546875 -55.99609375 58.23046875 C-55.95484375 56.99296875 -55.91359375 55.75546875 -55.87109375 54.48046875 C-55.84789063 53.784375 -55.8246875 53.08828125 -55.80078125 52.37109375 C-55.90360384 49.80862707 -55.90360384 49.80862707 -57.99609375 46.23046875 C-66.24609375 45.90046875 -74.49609375 45.57046875 -82.99609375 45.23046875 C-82.99609375 40.94046875 -82.99609375 36.65046875 -82.99609375 32.23046875 C-65.83609375 31.90046875 -48.67609375 31.57046875 -30.99609375 31.23046875 C-31.98609375 28.92046875 -32.97609375 26.61046875 -33.99609375 24.23046875 C-35.21430306 17.68259373 -33.80522616 12.20542079 -30.62890625 6.43359375 C-23.86365642 -2.69463807 -10.03784267 -4.46359183 0 0 Z M-24.99609375 8.23046875 C-27.53740921 11.84245949 -28.46937527 14.44212789 -28.55859375 18.85546875 C-28.60113281 19.79648437 -28.64367188 20.7375 -28.6875 21.70703125 C-27.8805329 26.7543472 -27.8805329 26.7543472 -21.99609375 36.23046875 C-40.80609375 36.23046875 -59.61609375 36.23046875 -78.99609375 36.23046875 C-78.99609375 37.55046875 -78.99609375 38.87046875 -78.99609375 40.23046875 C-70.74609375 40.23046875 -62.49609375 40.23046875 -53.99609375 40.23046875 C-49.42466518 53.94475446 -49.42466518 53.94475446 -50.68359375 58.98046875 C-52.25569499 61.67549945 -53.18897369 62.82690872 -55.99609375 64.23046875 C-61.18734502 65.1368777 -61.18734502 65.1368777 -63.99609375 64.23046875 C-65.67936003 62.28823843 -66.76394495 60.38436179 -67.890625 58.078125 C-68.92625712 55.89167218 -68.92625712 55.89167218 -71.99609375 55.23046875 C-73.37000394 58.22664007 -73.37000394 58.22664007 -71.765625 60.98828125 C-66.45995936 70.1169914 -60.59889749 78.73615548 -54.40478516 87.28466797 C-52.25365112 90.25599176 -50.12601118 93.24391177 -47.99609375 96.23046875 C-46.01609375 95.24046875 -46.01609375 95.24046875 -43.99609375 94.23046875 C-46.65057082 89.54814526 -49.89045341 85.41628632 -53.23632812 81.22265625 C-56.2343288 77.40122898 -58.66894297 73.49601194 -60.99609375 69.23046875 C-59.77921875 69.14796875 -58.56234375 69.06546875 -57.30859375 68.98046875 C-53.94163106 68.60505828 -53.22051957 68.448829 -50.68359375 65.98046875 C-47.99609375 64.23046875 -47.99609375 64.23046875 -45.66796875 64.63671875 C-43.78782998 65.21687585 -41.91168132 65.81007343 -40.0390625 66.4140625 C-32.30089899 68.49015515 -25.59979065 67.40295358 -17.99609375 65.23046875 C-17.99609375 75.79046875 -17.99609375 86.35046875 -17.99609375 97.23046875 C-17.00609375 97.23046875 -16.01609375 97.23046875 -14.99609375 97.23046875 C-14.99609375 78.42046875 -14.99609375 59.61046875 -14.99609375 40.23046875 C-6.41609375 40.23046875 2.16390625 40.23046875 11.00390625 40.23046875 C11.00390625 45.18046875 11.00390625 50.13046875 11.00390625 55.23046875 C12.32390625 55.23046875 13.64390625 55.23046875 15.00390625 55.23046875 C15.00390625 50.28046875 15.00390625 45.33046875 15.00390625 40.23046875 C17.97390625 40.23046875 20.94390625 40.23046875 24.00390625 40.23046875 C24.00390625 38.91046875 24.00390625 37.59046875 24.00390625 36.23046875 C21.03390625 36.23046875 18.06390625 36.23046875 15.00390625 36.23046875 C14.94203125 34.99296875 14.88015625 33.75546875 14.81640625 32.48046875 C13.90671448 24.26725165 10.54011947 16.36799352 5.00390625 10.23046875 C3.02233097 8.66326865 3.02233097 8.66326865 0.94140625 7.48046875 C0.26980469 7.073125 -0.40179688 6.66578125 -1.09375 6.24609375 C-8.32045359 2.38789471 -19.0116223 2.40348339 -24.99609375 8.23046875 Z " fill="#060F57" transform="translate(82.99609375,2.76953125)"/>
<path d="M0 0 C7.58414402 4.50167309 12.00853526 10.22812846 14.41772461 18.69580078 C15.74757021 26.2421867 15.29997298 33.98957045 15.1875 41.625 C15.1724266 43.41014497 15.15874289 45.19530224 15.14648438 46.98046875 C15.11625874 51.32086939 15.0575037 55.65953583 15 60 C9.72 60 4.44 60 -1 60 C-1.03738281 57.56625 -1.07476562 55.1325 -1.11328125 52.625 C-1.15960779 50.24519306 -1.21080067 47.8655365 -1.26245117 45.48583984 C-1.29552678 43.84303063 -1.32361177 42.20011253 -1.34643555 40.55712891 C-1.38030405 38.183451 -1.43263075 35.81075559 -1.48828125 33.4375 C-1.49467117 32.71320801 -1.5010611 31.98891602 -1.50764465 31.24267578 C-1.66612842 25.63708361 -2.53286336 19.73265486 -6.41596985 15.43164062 C-9.88546371 12.43281829 -12.63262216 11.13405665 -17.1875 10.6875 C-22.62624962 11.13329915 -26.81400399 13.03260359 -30.875 16.6875 C-32.62412715 20.28292802 -33.28867056 24.08350377 -34 28 C-32.35 28 -30.7 28 -29 28 C-29 33.61 -29 39.22 -29 45 C-30.32 45 -31.64 45 -33 45 C-33.33 49.95 -33.66 54.9 -34 60 C-39.61 60 -45.22 60 -51 60 C-51.04616183 55.0376036 -51.08591097 50.07596621 -51.10986328 45.11352539 C-51.11985897 43.42892925 -51.13346004 41.74435019 -51.15087891 40.05981445 C-51.17541276 37.62446859 -51.18654758 35.18935408 -51.1953125 32.75390625 C-51.20563507 32.01290176 -51.21595764 31.27189728 -51.22659302 30.50843811 C-51.22879156 20.02866699 -48.51612588 11.03285899 -41.33203125 3.17578125 C-39.62721693 1.627014 -37.90188812 0.29766353 -36 -1 C-35.10861328 -1.61875 -35.10861328 -1.61875 -34.19921875 -2.25 C-23.47933385 -8.64198106 -10.71529406 -4.34095068 0 0 Z " fill="#071768" transform="translate(183,130)"/>
<path d="M0 0 C4.64173842 -0.09257761 9.28018784 -0.17197498 13.92211914 -0.21972656 C15.49612365 -0.23966084 17.07005589 -0.26681871 18.64379883 -0.30175781 C30.36367428 -0.55516052 41.23704662 -0.32682719 50.375 8.125 C57.63255699 15.11717732 61.02845985 23.10884723 61.3125 33.125 C61.15107175 43.14700356 57.48820821 50.14930735 51 57.61328125 C40.11407956 66.27382472 30.55150994 66.794132 17.25 66.375 C15.57036084 66.34483267 13.89066888 66.31746892 12.2109375 66.29296875 C8.13821819 66.23272142 4.07299551 66.11527346 0 66 C0 58.74 0 51.48 0 44 C5.28 44 10.56 44 16 44 C16 45.98 16 47.96 16 50 C18.54320516 49.91240742 21.08316933 49.80546587 23.625 49.6875 C24.33785156 49.66494141 25.05070312 49.64238281 25.78515625 49.61914062 C30.51621061 49.3804177 33.87900229 48.5426126 38 46 C42.65381053 40.84307481 43.35270386 37.64694281 43.28125 30.83203125 C42.85421447 26.53202071 41.63949219 24.42420609 39 21 C33.90620448 17.17965336 29.28913733 16.8687456 23.046875 16.68359375 C22.38665344 16.66281265 21.72643188 16.64203156 21.04620361 16.62062073 C18.94756985 16.55549853 16.84881628 16.49641498 14.75 16.4375 C13.32290453 16.39427921 11.89582095 16.3506638 10.46875 16.30664062 C6.97928741 16.19911649 3.48972743 16.09976715 0 16 C0 10.72 0 5.44 0 0 Z " fill="#061768" transform="translate(68,124)"/>
<path d="M0 0 C0.74617584 0.0028299 1.49235168 0.00565979 2.26113892 0.00857544 C4.62478238 0.01969563 6.98803518 0.04478429 9.3515625 0.0703125 C10.96223408 0.08035288 12.57291165 0.08947688 14.18359375 0.09765625 C18.11485187 0.1178996 22.04527421 0.15706213 25.9765625 0.1953125 C25.9765625 5.4753125 25.9765625 10.7553125 25.9765625 16.1953125 C23.9759375 16.23269531 21.9753125 16.27007812 19.9140625 16.30859375 C17.95130949 16.35731457 15.98855768 16.40613904 14.02587891 16.45776367 C12.01355939 16.50690895 10.00090518 16.54167538 7.98828125 16.57617188 C-3.05722602 16.61469503 -3.05722602 16.61469503 -12.56616211 21.6105957 C-16.28054503 25.83080567 -17.40637981 29.40552417 -17.29296875 35.00390625 C-16.81628227 38.87957455 -15.63067121 42.26832372 -13.0234375 45.1953125 C-5.63105282 50.31874743 2.32722589 49.86091915 10.9765625 49.9453125 C12.4336286 49.97351378 13.89066227 50.00344694 15.34765625 50.03515625 C18.89093655 50.11174593 22.4320652 50.15271037 25.9765625 50.1953125 C25.9765625 55.4753125 25.9765625 60.7553125 25.9765625 66.1953125 C21.17413962 66.28776556 16.37487354 66.36720432 11.57226562 66.41503906 C9.94292672 66.43500329 8.31365805 66.4621848 6.68457031 66.49707031 C-6.38826153 66.76975515 -16.10126328 65.86691668 -26.04296875 56.48828125 C-33.53096598 47.81874599 -34.71409968 38.10612433 -34.20263672 27.10839844 C-33.81008105 22.91757253 -32.26600372 19.6923142 -30.0234375 16.1953125 C-29.6109375 15.50050781 -29.1984375 14.80570313 -28.7734375 14.08984375 C-22.26027962 4.22759048 -11.52411024 -0.16690282 0 0 Z " fill="#061769" transform="translate(236.0234375,123.8046875)"/>
<path d="M0 0 C0.74617584 0.0028299 1.49235168 0.00565979 2.26113892 0.00857544 C4.62478238 0.01969563 6.98803518 0.04478429 9.3515625 0.0703125 C10.96223408 0.08035288 12.57291165 0.08947688 14.18359375 0.09765625 C18.11485187 0.1178996 22.04527421 0.15706213 25.9765625 0.1953125 C25.9765625 5.4753125 25.9765625 10.7553125 25.9765625 16.1953125 C23.9759375 16.23269531 21.9753125 16.27007812 19.9140625 16.30859375 C17.95130949 16.35731457 15.98855768 16.40613904 14.02587891 16.45776367 C12.01355939 16.50690895 10.00090518 16.54167538 7.98828125 16.57617188 C-3.05722602 16.61469503 -3.05722602 16.61469503 -12.56616211 21.6105957 C-16.28054503 25.83080567 -17.40637981 29.40552417 -17.29296875 35.00390625 C-16.81628227 38.87957455 -15.63067121 42.26832372 -13.0234375 45.1953125 C-5.63105282 50.31874743 2.32722589 49.86091915 10.9765625 49.9453125 C12.4336286 49.97351378 13.89066227 50.00344694 15.34765625 50.03515625 C18.89093655 50.11174593 22.4320652 50.15271037 25.9765625 50.1953125 C25.9765625 55.4753125 25.9765625 60.7553125 25.9765625 66.1953125 C21.29866507 66.26459568 16.62258388 66.32420012 11.94458008 66.36010742 C10.35695324 66.37509263 8.76936707 66.39548796 7.18188477 66.42163086 C-4.91742556 66.61573744 -14.2888062 66.1948684 -23.9453125 58.2265625 C-31.7388591 50.60881019 -34.87551745 41.93430836 -35.0234375 31.1953125 C-34.42250671 24.3625068 -31.66384648 18.91915554 -28.0234375 13.1953125 C-27.188125 11.865 -27.188125 11.865 -26.3359375 10.5078125 C-19.05655841 3.22843341 -10.17290958 -0.14733348 0 0 Z M-23.0234375 16.1953125 C-28.47389657 23.60370347 -29.16760894 31.20989274 -28.0234375 40.1953125 C-25.68417809 48.45990412 -21.18465576 53.77699202 -13.92578125 58.1796875 C-9.989888 60.28098574 -6.77875188 60.31214793 -2.38671875 60.29296875 C-1.08798828 60.28974609 0.21074219 60.28652344 1.54882812 60.28320312 C2.92057358 60.27484781 4.29231837 60.26638287 5.6640625 60.2578125 C7.04752445 60.25279585 8.43098813 60.24823323 9.81445312 60.24414062 C13.20186645 60.23233779 16.58919283 60.21587269 19.9765625 60.1953125 C19.9765625 58.8753125 19.9765625 57.5553125 19.9765625 56.1953125 C19.20054688 56.1859668 18.42453125 56.17662109 17.625 56.16699219 C14.07489963 56.11297813 10.52607302 56.02938947 6.9765625 55.9453125 C5.75582031 55.93113281 4.53507812 55.91695312 3.27734375 55.90234375 C-4.90790929 55.68112069 -10.67452934 54.9481348 -17.046875 49.44921875 C-17.49289063 48.89105469 -17.93890625 48.33289063 -18.3984375 47.7578125 C-19.09066406 46.92443359 -19.09066406 46.92443359 -19.796875 46.07421875 C-23.49889763 40.403286 -23.87063006 34.78752957 -23.0234375 28.1953125 C-21.13190769 22.22517154 -18.34945994 17.68820445 -13.16015625 14.1328125 C-5.99886217 10.99074563 1.27623666 10.8016114 8.9765625 10.5703125 C10.03746094 10.53164062 11.09835938 10.49296875 12.19140625 10.453125 C14.78629317 10.35961556 17.38118699 10.27386348 19.9765625 10.1953125 C19.9765625 8.8753125 19.9765625 7.5553125 19.9765625 6.1953125 C15.8308655 6.1073557 11.68541238 6.05460097 7.5390625 6.0078125 C6.37439453 5.98267578 5.20972656 5.95753906 4.00976562 5.93164062 C-7.1629035 5.8372237 -15.47633741 7.53255413 -23.0234375 16.1953125 Z " fill="#06105B" transform="translate(38.0234375,123.8046875)"/>
<path d="M0 0 C8.43808746 6.01786082 11.91299262 13.44999622 14.015625 23.4375 C14.015625 24.4275 14.015625 25.4175 14.015625 26.4375 C9.49546256 26.6416769 4.97649189 26.76543748 0.453125 26.875 C-1.46209961 26.96297852 -1.46209961 26.96297852 -3.41601562 27.05273438 C-12.68907823 27.22133551 -12.68907823 27.22133551 -16.37841797 24.98876953 C-20.66669412 20.82501683 -23.26510065 16.61491338 -23.359375 10.5625 C-23.25377712 5.78947573 -22.30361925 3.02587216 -18.984375 -0.5625 C-12.95099645 -4.24956467 -5.91441453 -3.35305391 0 0 Z M-15.984375 4.4375 C-17.65000882 7.76876763 -17.67534601 10.86437065 -16.984375 14.4375 C-15.39509754 18.2337498 -13.591271 20.42434874 -9.984375 22.4375 C-4.36766168 23.4028726 1.36850323 22.89485969 7.015625 22.4375 C5.39326002 14.8973656 2.85474218 9.59345336 -2.984375 4.4375 C-7.52146224 1.90517224 -11.48987601 1.64781097 -15.984375 4.4375 Z " fill="#081059" transform="translate(80.984375,12.5625)"/>
<path d="M0 0 C10.89 0 21.78 0 33 0 C33 6.93 33 13.86 33 21 C24.46339491 24.65854504 19.09784461 25.45240632 10.4375 22.0625 C6.2320442 20.2320442 6.2320442 20.2320442 5 19 C4.20243778 15.51807123 3.51622966 12.01840605 2.81640625 8.515625 C2.02037881 4.68424198 2.02037881 4.68424198 0 0 Z M8 5 C8.391875 6.93875 8.78375 8.8775 9.1875 10.875 C9.40792969 11.96554688 9.62835938 13.05609375 9.85546875 14.1796875 C10.73223967 17.17346793 10.73223967 17.17346793 13.390625 18.3671875 C18.66739122 19.6468823 22.13466138 19.43266931 27 17 C27 13.04 27 9.08 27 5 C20.73 5 14.46 5 8 5 Z " fill="#050B4E" transform="translate(32,43)"/>
<path d="M0 0 C8.58 0 17.16 0 26 0 C26 4.95 26 9.9 26 15 C27.32 15 28.64 15 30 15 C30 10.05 30 5.1 30 0 C32.97 0 35.94 0 39 0 C39.495 1.485 39.495 1.485 40 3 C38.35 3.33 36.7 3.66 35 4 C34.67 8.95 34.34 13.9 34 19 C30.04 19 26.08 19 22 19 C21.67 14.05 21.34 9.1 21 4 C15.39 3.67 9.78 3.34 4 3 C4 22.14 4 41.28 4 61 C0.7 61 -2.6 61 -6 61 C-8.41816166 58.58183834 -7.18547019 52.31222181 -7.1875 49.0625 C-7.19974609 48.03447266 -7.21199219 47.00644531 -7.22460938 45.94726562 C-7.22654297 44.96564453 -7.22847656 43.98402344 -7.23046875 42.97265625 C-7.23457764 42.06781494 -7.23868652 41.16297363 -7.24291992 40.23071289 C-7 38 -7 38 -5 36 C-4.67 43.26 -4.34 50.52 -4 58 C-2.35 58.33 -0.7 58.66 1 59 C1.33 40.19 1.66 21.38 2 2 C8.93 2 15.86 2 23 2 C23.33 2.33 23.66 2.66 24 3 C24.33 2.34 24.66 1.68 25 1 C17.08 1 9.16 1 1 1 C0.67 1.66 0.34 2.32 0 3 C0 2.01 0 1.02 0 0 Z " fill="#07166A" transform="translate(68,43)"/>
<path d="M0 0 C0.99809692 0.30671631 0.99809692 0.30671631 2.01635742 0.61962891 C8.23668328 2.68604224 13.14838508 5.51534538 17 10.875 C17.50273437 11.55820313 18.00546875 12.24140625 18.5234375 12.9453125 C19.625 14.75 19.625 14.75 19.625 16.75 C18.635 16.42 17.645 16.09 16.625 15.75 C16.13 14.265 16.13 14.265 15.625 12.75 C14.635 12.42 13.645 12.09 12.625 11.75 C12.625 14.39 12.625 17.03 12.625 19.75 C11.965 19.75 11.305 19.75 10.625 19.75 C9.965 18.76 9.305 17.77 8.625 16.75 C8.480625 17.53375 8.33625 18.3175 8.1875 19.125 C7.625 21.75 7.625 21.75 6.625 23.75 C5.965 23.75 5.305 23.75 4.625 23.75 C4.191875 23.0075 3.75875 22.265 3.3125 21.5 C0.84753755 17.48302415 -1.91068827 15.23810391 -6.375 13.75 C-12.40620645 13.15870525 -16.40176885 14.52077525 -21.375 17.75 C-25.11284202 21.11405782 -25.51068648 25.99119146 -26.375 30.75 C-24.725 30.75 -23.075 30.75 -21.375 30.75 C-21.375 31.41 -21.375 32.07 -21.375 32.75 C-23.355 32.75 -25.335 32.75 -27.375 32.75 C-29.86305013 27.06302827 -29.86305013 27.06302827 -28.60546875 23.6796875 C-25.27608616 18.12014705 -21.38252847 14.06579371 -15.375 11.4375 C-8.21106458 9.7957648 -3.764377 11.56951012 2.625 14.75 C1.965 13.76 1.305 12.77 0.625 11.75 C1 9.5625 1 9.5625 1.625 7.75 C3.605 7.42 5.585 7.09 7.625 6.75 C7.625 6.09 7.625 5.43 7.625 4.75 C-9.16882509 -0.63738448 -9.16882509 -0.63738448 -25.7578125 2.98046875 C-30.96456322 6.18528396 -34.16417506 9.57125009 -37.375 14.75 C-38.035 14.42 -38.695 14.09 -39.375 13.75 C-29.72490126 -1.35279681 -16.72259929 -5.19397931 0 0 Z M12.625 14.75 C14.625 15.75 14.625 15.75 14.625 15.75 Z " fill="#051157" transform="translate(175.375,127.25)"/>
<path d="M0 0 C6.60162008 1.42522023 12.1966893 2.83914459 16.3359375 8.56640625 C18.40301417 12.73714501 18.53683069 16.7354863 18.21875 21.34765625 C16.38549866 26.63173364 13.02261435 30.52485454 8.21875 33.34765625 C2.51501841 35.13196253 -2.7008406 35.70417588 -8.65625 35.66015625 C-9.84142212 35.65278442 -9.84142212 35.65278442 -11.05053711 35.64526367 C-20.43887868 35.45709155 -29.14387221 33.05394307 -36.78125 27.34765625 C-37.78125 24.34765625 -37.78125 24.34765625 -36.78515625 22.0859375 C-36.30949219 21.28542969 -35.83382812 20.48492187 -35.34375 19.66015625 C-34.63412109 18.44779297 -34.63412109 18.44779297 -33.91015625 17.2109375 C-33.53761719 16.59605469 -33.16507812 15.98117188 -32.78125 15.34765625 C-28.91557317 16.19107665 -25.57205907 17.7464575 -22 19.41015625 C-17.71159314 21.22215915 -14.00404027 21.50821816 -9.34375 21.53515625 C-8.23128906 21.54933594 -7.11882812 21.56351563 -5.97265625 21.578125 C-2.81557812 21.35013527 -0.62417253 20.69206634 2.21875 19.34765625 C-2.54563477 24.27085384 -2.54563477 24.27085384 -5.91796875 24.48046875 C-19.62989033 24.43847205 -19.62989033 24.43847205 -24.78125 21.34765625 C-25.11125 22.33765625 -25.44125 23.32765625 -25.78125 24.34765625 C-26.77125 25.00765625 -27.76125 25.66765625 -28.78125 26.34765625 C-28.78125 27.33765625 -28.78125 28.32765625 -28.78125 29.34765625 C-21.86053868 32.18667285 -15.6581497 32.83867711 -8.21875 32.78515625 C-6.7347168 32.81512695 -6.7347168 32.81512695 -5.22070312 32.84570312 C1.90602196 32.84097404 7.41816952 31.67267347 12.87329102 26.90014648 C15.87218231 23.43980358 15.56025327 19.1931766 15.484375 14.85546875 C15.07265863 10.9683818 13.97497894 9.10388519 11.21875 6.34765625 C8.29304822 4.98411817 5.34831447 4.11351798 2.21875 3.34765625 C1.62578125 3.16976562 1.0328125 2.991875 0.421875 2.80859375 C-2.86654172 2.12059167 -6.18510871 1.97808122 -9.53125 1.78515625 C-10.22863281 1.74197266 -10.92601562 1.69878906 -11.64453125 1.65429688 C-13.35656922 1.54876029 -15.06888561 1.44775715 -16.78125 1.34765625 C-11.49678295 -2.17532179 -6.07239414 -1.04761345 0 0 Z " fill="#050B49" transform="translate(154.78125,71.65234375)"/>
<path d="M0 0 C7.92 0 15.84 0 24 0 C24 3.96 24 7.92 24 12 C23.67 12 23.34 12 23 12 C22.67 8.7 22.34 5.4 22 2 C15.07 1.67 8.14 1.34 1 1 C1.00523682 2.65563965 1.01047363 4.3112793 1.01586914 6.01708984 C1.03392538 12.14094505 1.04543432 18.2647979 1.05493164 24.38867188 C1.05997042 27.04264725 1.06680151 29.69661984 1.07543945 32.35058594 C1.08752489 36.15821011 1.09323275 39.96579769 1.09765625 43.7734375 C1.10281754 44.96617279 1.10797882 46.15890808 1.11329651 47.38778687 C1.11337204 48.48877716 1.11344757 49.58976746 1.11352539 50.72412109 C1.115746 51.69674896 1.11796661 52.66937683 1.12025452 53.67147827 C1 56 1 56 0 58 C-1.66611905 58.042721 -3.33382885 58.04063832 -5 58 C-7.45936922 55.54063078 -6.48690712 49.25375997 -6.625 45.9375 C-6.6765625 44.91205078 -6.728125 43.88660156 -6.78125 42.83007812 C-7.03191394 37.06849372 -6.91627327 31.69593757 -6 26 C-6.99 26.33 -7.98 26.66 -9 27 C-16.21642068 29.01018532 -21.78989306 28.03546825 -28.703125 25.55859375 C-31.26149286 24.93640565 -32.55633045 25.08427801 -35 26 C-35.639375 26.495 -36.27875 26.99 -36.9375 27.5 C-39.31118417 29.22631576 -41.14023419 29.51002365 -44 30 C-43.22462891 31.15628906 -43.22462891 31.15628906 -42.43359375 32.3359375 C-41.77488281 33.33882812 -41.11617187 34.34171875 -40.4375 35.375 C-39.44556641 36.87160156 -39.44556641 36.87160156 -38.43359375 38.3984375 C-37.96050781 39.25695312 -37.48742188 40.11546875 -37 41 C-37.33 41.66 -37.66 42.32 -38 43 C-39.50571746 40.87885041 -41.00468679 38.75346385 -42.5 36.625 C-42.92925781 36.02171875 -43.35851562 35.4184375 -43.80078125 34.796875 C-47 30.2265625 -47 30.2265625 -47 28 C-46.39671875 27.81824219 -45.7934375 27.63648437 -45.171875 27.44921875 C-44.37265625 27.19785156 -43.5734375 26.94648437 -42.75 26.6875 C-41.96109375 26.44386719 -41.1721875 26.20023438 -40.359375 25.94921875 C-37.9201206 25.11254362 -37.9201206 25.11254362 -36.015625 23.3125 C-34 22 -34 22 -31.625 22.36328125 C-30.75875 22.67652344 -29.8925 22.98976563 -29 23.3125 C-20.46697496 25.97051448 -12.76768315 25.25252616 -4 24 C-4 34.56 -4 45.12 -4 56 C-3.01 56 -2.02 56 -1 56 C-1.00222061 55.32792511 -1.00444122 54.65585022 -1.00672913 53.96340942 C-1.02879822 46.98846975 -1.04391343 40.01353993 -1.05493164 33.03857422 C-1.0599703 30.43310137 -1.0668013 27.82763137 -1.07543945 25.22216797 C-1.08752544 21.48404236 -1.09323288 17.74595403 -1.09765625 14.0078125 C-1.10281754 12.83695099 -1.10797882 11.66608948 -1.11329651 10.45974731 C-1.11337204 9.37877777 -1.11344757 8.29780823 -1.11352539 7.18408203 C-1.115746 6.22921906 -1.11796661 5.27435608 -1.12025452 4.29055786 C-1 2 -1 2 0 0 Z " fill="#030A50" transform="translate(69,44)"/>
<path d="M0 0 C4.64173842 -0.09257761 9.28018784 -0.17197498 13.92211914 -0.21972656 C15.49612365 -0.23966084 17.07005589 -0.26681871 18.64379883 -0.30175781 C30.36367428 -0.55516052 41.23704662 -0.32682719 50.375 8.125 C57.63255699 15.11717732 61.02845985 23.10884723 61.3125 33.125 C61.14844548 43.3100516 57.45568997 50.54731241 50.453125 57.828125 C46.81990628 61.04479635 42.07862464 65 37 65 C37 64.34 37 63.68 37 63 C37.6290625 62.74347656 38.258125 62.48695313 38.90625 62.22265625 C47.09884357 58.55819798 53.58291086 53.34727613 57 44.8125 C59.61181827 35.04805524 59.03173362 24.81344537 54 16 C49.86290649 9.13680846 43.4380571 5.59697623 36 3 C30.14265205 1.9808721 24.17606535 2.11251882 18.25 2.125 C16.66663386 2.10683022 15.08329579 2.08601429 13.5 2.0625 C9.66630612 2.01121946 5.83401751 1.99552847 2 2 C2 6.29 2 10.58 2 15 C5.21363281 14.96519531 5.21363281 14.96519531 8.4921875 14.9296875 C10.56395882 14.91409627 12.63572363 14.90194855 14.70751953 14.89013672 C16.14895547 14.88007037 17.59037095 14.8664162 19.03173828 14.84912109 C21.10193934 14.82489988 23.17187076 14.81352359 25.2421875 14.8046875 C27.11173096 14.78897705 27.11173096 14.78897705 29.01904297 14.77294922 C32 15 32 15 34 17 C22.78 16.67 11.56 16.34 0 16 C0 10.72 0 5.44 0 0 Z " fill="#040A4B" transform="translate(68,124)"/>
<path d="M0 0 C11.22 0 22.44 0 34 0 C34 5.28 34 10.56 34 16 C31.999375 16.03738281 29.99875 16.07476562 27.9375 16.11328125 C25.97474699 16.16200207 24.01199518 16.21082654 22.04931641 16.26245117 C20.03699689 16.31159645 18.02434268 16.34636288 16.01171875 16.38085938 C4.96621148 16.41938253 4.96621148 16.41938253 -4.54272461 21.4152832 C-8.25710753 25.63549317 -9.38294231 29.21021167 -9.26953125 34.80859375 C-8.79284477 38.68426205 -7.60723371 42.07301122 -5 45 C2.39238468 50.12343493 10.35066339 49.66560665 19 49.75 C20.4570661 49.77820128 21.91409977 49.80813444 23.37109375 49.83984375 C26.91437405 49.91643343 30.4555027 49.95739787 34 50 C34 55.28 34 60.56 34 66 C33.67 66 33.34 66 33 66 C33 61.38 33 56.76 33 52 C30.9271875 52.04640625 28.854375 52.0928125 26.71875 52.140625 C24.68654306 52.16846345 22.65433117 52.19615045 20.62207031 52.21972656 C19.22155527 52.2397063 17.82112218 52.2669002 16.42089844 52.30175781 C7.10099923 52.52777534 0.61558482 52.18771316 -7.05859375 46.46484375 C-10.84194342 42.27422132 -12.08733016 38.48840287 -12.2890625 32.84765625 C-11.71367193 27.17928161 -9.64591854 22.62973414 -5.60302734 18.61157227 C1.12392975 13.34233988 9.42703682 14.45271782 17.5 14.6875 C19.00517122 14.7126186 20.51038289 14.73542548 22.015625 14.75585938 C25.6779332 14.81056334 29.3387044 14.89663646 33 15 C33 10.71 33 6.42 33 2 C22.11 2 11.22 2 0 2 C0 1.34 0 0.68 0 0 Z " fill="#060C51" transform="translate(228,124)"/>
<path d="M0 0 C7.66744912 -0.77391075 12.22120904 -0.00076654 18.41796875 4.6875 C18.94003906 5.120625 19.46210938 5.55375 20 6 C19.1328125 7.953125 19.1328125 7.953125 18 10 C15.875 10.75 15.875 10.75 14 11 C14 10.34 14 9.68 14 9 C4.1 9 -5.8 9 -16 9 C-16 11.31 -16 13.62 -16 16 C-15.09233887 15.98952637 -14.18467773 15.97905273 -13.24951172 15.96826172 C-9.86130196 15.93404613 -6.47327756 15.9090363 -3.08496094 15.89013672 C-1.62236624 15.88011895 -0.15979137 15.86650088 1.30273438 15.84912109 C3.41281039 15.82468561 5.52262012 15.81347463 7.6328125 15.8046875 C8.90012207 15.79421387 10.16743164 15.78374023 11.47314453 15.77294922 C14.98987733 15.99934833 17.72916487 16.72776399 21 18 C21.04254356 19.99954746 21.04080783 22.00041636 21 24 C18.92208966 26.07791034 14.44952167 25.27565545 11.5625 25.375 C1.44383105 25.70377853 1.44383105 25.70377853 -8 29 C-8.33 29.99 -8.66 30.98 -9 32 C-9.66 31.67 -10.32 31.34 -11 31 C-4.60354398 24.24818531 -4.60354398 24.24818531 0.38183594 23.77294922 C1.67009277 23.78865967 1.67009277 23.78865967 2.984375 23.8046875 C4.38623047 23.81435547 4.38623047 23.81435547 5.81640625 23.82421875 C7.26853516 23.84935547 7.26853516 23.84935547 8.75 23.875 C9.73355469 23.88402344 10.71710938 23.89304687 11.73046875 23.90234375 C14.15389407 23.92587215 16.57682222 23.95874632 19 24 C19 22.35 19 20.7 19 19 C6.79 19 -5.42 19 -18 19 C-18 15.04 -18 11.08 -18 7 C-6.78 6.67 4.44 6.34 16 6 C11.707812 3.4246872 9.84620605 2.54217685 5.1875 1.8125 C4.21167969 1.65394531 3.23585937 1.49539062 2.23046875 1.33203125 C1.49441406 1.22246094 0.75835937 1.11289062 0 1 C0 0.67 0 0.34 0 0 Z M13 11 C13.99 12.485 13.99 12.485 15 14 C14.34 14 13.68 14 13 14 C13 13.01 13 12.02 13 11 Z " fill="#050F51" transform="translate(132,28)"/>
<path d="M0 0 C1.32 0.33 2.64 0.66 4 1 C3.34 1 2.68 1 2 1 C2.33 4.3 2.66 7.6 3 11 C3.66 10.67 4.32 10.34 5 10 C7.67578752 9.95752718 10.32680213 9.95235885 13 10 C13.99 10 14.98 10 16 10 C17.67099977 10.31088368 19.33871537 10.64080332 21 11 C21 12.65 21 14.3 21 16 C21.66 16.33 22.32 16.66 23 17 C23.66 17.66 24.32 18.32 25 19 C27.08333333 18.83333333 27.08333333 18.83333333 29 18 C29.33 17.34 29.66 16.68 30 16 C30.66 16 31.32 16 32 16 C32.69969682 18.24623699 33.38435043 20.49716414 34.0625 22.75 C34.44535156 24.00296875 34.82820313 25.2559375 35.22265625 26.546875 C35.92656828 29.6738008 36.16653785 31.09466046 35 34 C34.67 32.35 34.34 30.7 34 29 C29.52116304 29.44703986 29.52116304 29.44703986 26 32 C25.61328125 31.51789062 25.2265625 31.03578125 24.828125 30.5390625 C24.04695313 29.59160156 24.04695313 29.59160156 23.25 28.625 C22.73953125 27.99851562 22.2290625 27.37203125 21.703125 26.7265625 C19.91259898 24.91139622 18.27385637 24.09871211 16 23 C15.67 22.34 15.34 21.68 15 21 C9.1146687 18.62082352 4.20227881 19.07652187 -2 20 C-2 21.32 -2 22.64 -2 24 C-2.66 24 -3.32 24 -4 24 C-4.33 22.35 -4.66 20.7 -5 19 C-0.17301354 16.10380812 4.43437684 15.77633955 9.9375 16.5625 C14.71226438 17.89868651 18.26492155 20.84107727 22 24 C22 20.47767483 21.43268519 19.94248672 19.1875 17.375 C18.66542969 16.76398437 18.14335937 16.15296875 17.60546875 15.5234375 C14.52890678 12.60407212 11.38157361 12.91542853 7.375 13 C5.58372817 13.03761201 3.79105866 13.04667254 2 13 C0.18884044 11.18884044 0.61800552 8.38721773 0.4375 5.9375 C0.35371094 4.83277344 0.26992187 3.72804688 0.18359375 2.58984375 C0.09271484 1.30787109 0.09271484 1.30787109 0 0 Z M24 26 C24.33 26.99 24.66 27.98 25 29 C25 28.01 25 27.02 25 26 C24.67 26 24.34 26 24 26 Z " fill="#060F57" transform="translate(130,1)"/>
<path d="M0 0 C4.91610421 2.87371436 8.81995604 7.02236812 10.625 12.4375 C11.26804336 20.14347865 11.44573973 27.07286324 6.625 33.4375 C0.92415988 39.13834012 -4.47646157 40.61649181 -12.3125 40.625 C-14.33373321 40.57714668 -16.3548648 40.51952053 -18.375 40.4375 C-18.4022415 39.02094207 -18.42150467 37.60422955 -18.4375 36.1875 C-18.44910156 35.39859375 -18.46070313 34.6096875 -18.47265625 33.796875 C-18.37885306 31.53058998 -18.00741063 29.6086105 -17.375 27.4375 C-16.74851563 27.35113281 -16.12203125 27.26476562 -15.4765625 27.17578125 C-10.37417632 26.47318416 -10.37417632 26.47318416 -6.75 23.1875 C-6.30797402 19.94597618 -6.46619056 17.58337885 -7.375 14.4375 C-10.46388522 12.37824319 -11.08435927 12.1984626 -14.5625 12.3125 C-15.820625 12.35375 -17.07875 12.395 -18.375 12.4375 C-18.375 11.7775 -18.375 11.1175 -18.375 10.4375 C-14.11596781 9.39447171 -11.34428556 9.08627559 -7.5 11.1875 C-4.375 13.4375 -4.375 13.4375 -3.375 16.4375 C-3.64453125 18.59375 -3.64453125 18.59375 -4.1875 20.9375 C-4.35894531 21.7109375 -4.53039062 22.484375 -4.70703125 23.28125 C-5.375 25.4375 -5.375 25.4375 -7.375 28.4375 C-10.875 29.6875 -10.875 29.6875 -14.375 30.4375 C-15.035 30.1075 -15.695 29.7775 -16.375 29.4375 C-16.375 32.4075 -16.375 35.3775 -16.375 38.4375 C-8.10419727 38.0493879 -2.2057274 37.57173151 4.375 32.1875 C8.15917018 27.56240311 8.85426838 23.27407149 8.5 17.4375 C7.88624084 12.59397889 6.42167817 9.4206477 3.625 5.4375 C2.965 5.1075 2.305 4.7775 1.625 4.4375 C1.625 3.7775 1.625 3.1175 1.625 2.4375 C-3.14592956 1.20347138 -7.79969446 1.32484888 -12.6875 1.375 C-13.94143555 1.38176758 -13.94143555 1.38176758 -15.22070312 1.38867188 C-17.27216649 1.40039452 -19.32359273 1.41832797 -21.375 1.4375 C-16.33612021 -3.60137979 -6.151502 -2.78423882 0 0 Z " fill="#060C4D" transform="translate(249.375,54.5625)"/>
<path d="M0 0 C0.95289917 0.09849243 0.95289917 0.09849243 1.92504883 0.19897461 C9.50788863 0.94030799 17.07451441 1.30175204 24.6875 1.5625 C26.47317383 1.62727539 26.47317383 1.62727539 28.29492188 1.69335938 C31.19651954 1.7982364 34.09824754 1.89949715 37 2 C37 6.62 37 11.24 37 16 C26.44 16 15.88 16 5 16 C6.32 15.67 7.64 15.34 9 15 C9 14.01 9 13.02 9 12 C17.58 12 26.16 12 35 12 C35 10.02 35 8.04 35 6 C31.74034816 5.03650374 28.7437555 4.84935095 25.3515625 4.7890625 C24.26359375 4.76070312 23.175625 4.73234375 22.0546875 4.703125 C19.77620271 4.6512233 17.49753218 4.60689845 15.21875 4.5703125 C9.37821869 4.40462367 4.93844637 4.26321368 0 1 C0 0.67 0 0.34 0 0 Z " fill="#07176B" transform="translate(25,174)"/>
<path d="M0 0 C4.95 0 9.9 0 15 0 C15 4.95 15 9.9 15 15 C10.05 15 5.1 15 0 15 C0 10.05 0 5.1 0 0 Z M5 5 C5 6.32 5 7.64 5 9 C6.65 9 8.3 9 10 9 C10 7.68 10 6.36 10 5 C8.35 5 6.7 5 5 5 Z " fill="#0B1563" transform="translate(88,91)"/>
<path d="M0 0 C0.77601562 0.15726563 1.55203125 0.31453125 2.3515625 0.4765625 C4.375 1.375 4.375 1.375 5.6484375 3.4609375 C5.88820313 4.09257812 6.12796875 4.72421875 6.375 5.375 C5.385 4.859375 4.395 4.34375 3.375 3.8125 C-0.93993291 1.92416535 -4.06841772 2.49565956 -8.625 3.375 C-9.16709955 8.36432359 -9.47770925 13.07495785 -6.6875 17.4375 C-3.11065698 21.14425257 1.12980241 21.01464517 6 21.1875 C7.49217393 21.19660349 8.98436568 21.20321489 10.4765625 21.20703125 C13.90020002 21.35454269 15.592188 21.51243007 18.375 23.375 C17.89729477 21.43713915 17.41778429 19.49972326 16.9375 17.5625 C16.67066406 16.48355469 16.40382812 15.40460937 16.12890625 14.29296875 C15.61422588 12.3009157 15.02562825 10.32688476 14.375 8.375 C15.365 8.705 16.355 9.035 17.375 9.375 C18.54296875 12.2109375 18.54296875 12.2109375 19.5625 15.75 C19.90667969 16.91273437 20.25085938 18.07546875 20.60546875 19.2734375 C21.375 22.375 21.375 22.375 21.375 25.375 C16.85483756 25.5791769 12.33586689 25.70293748 7.8125 25.8125 C5.89727539 25.90047852 5.89727539 25.90047852 3.94335938 25.99023438 C-5.32970323 26.15883551 -5.32970323 26.15883551 -9.01904297 23.92626953 C-11.93797908 21.09209382 -14.0374469 18.13119967 -15.625 14.375 C-15.25 12.125 -15.25 12.125 -14.625 10.375 C-14.356875 10.931875 -14.08875 11.48875 -13.8125 12.0625 C-11.60354949 16.36414046 -9.84476973 19.78868952 -5.625 22.375 C-4.965 22.375 -4.305 22.375 -3.625 22.375 C-4.11871094 21.82070313 -4.61242187 21.26640625 -5.12109375 20.6953125 C-5.76175781 19.97085938 -6.40242188 19.24640625 -7.0625 18.5 C-7.70058594 17.78070312 -8.33867188 17.06140625 -8.99609375 16.3203125 C-11.81272433 12.95656663 -11.96651391 10.72930229 -11.625 6.375 C-9.10176385 0.82388048 -6.05327483 -1.35641944 0 0 Z " fill="#060E4E" transform="translate(73.625,13.625)"/>
<path d="M0 0 C8.58 0 17.16 0 26 0 C26 4.95 26 9.9 26 15 C27.32 15 28.64 15 30 15 C30 10.05 30 5.1 30 0 C32.97 0 35.94 0 39 0 C39.495 1.485 39.495 1.485 40 3 C38.35 3.33 36.7 3.66 35 4 C34.67 8.95 34.34 13.9 34 19 C30.04 19 26.08 19 22 19 C22.33 17.02 22.66 15.04 23 13 C23.66 13 24.32 13 25 13 C25 9.04 25 5.08 25 1 C17.08 1 9.16 1 1 1 C0.67 1.66 0.34 2.32 0 3 C0 2.01 0 1.02 0 0 Z " fill="#0A1557" transform="translate(68,43)"/>
<path d="M0 0 C0 3.3 0 6.6 0 10 C-1.32 10.33 -2.64 10.66 -4 11 C-4.495 10.505 -4.495 10.505 -5 10 C-12.41624199 8.56972476 -18.10002017 9.04089041 -25 12 C-26.010625 12.391875 -27.02125 12.78375 -28.0625 13.1875 C-28.701875 13.455625 -29.34125 13.72375 -30 14 C-25.89431223 8.93631841 -21.48747339 6.81872092 -15 6 C-10.90766383 6.32777251 -6.99018389 7.04701794 -3 8 C-2.67 5.69 -2.34 3.38 -2 1 C-16.19 1 -30.38 1 -45 1 C-45 0.34 -45 -0.32 -45 -1 C-39.23455425 -1.19248585 -33.4689078 -1.37117352 -27.70263672 -1.53710938 C-25.7412572 -1.59549342 -23.77998594 -1.65764082 -21.81884766 -1.72363281 C-18.99922393 -1.81785821 -16.17948743 -1.89852438 -13.359375 -1.9765625 C-12.48319519 -2.00875885 -11.60701538 -2.0409552 -10.70428467 -2.0741272 C-9.88373596 -2.09429901 -9.06318726 -2.11447083 -8.21777344 -2.13525391 C-7.49829529 -2.15746002 -6.77881714 -2.17966614 -6.03753662 -2.20254517 C-4 -2 -4 -2 0 0 Z " fill="#07104F" transform="translate(213,46)"/>
<path d="M0 0 C0.66 0.33 1.32 0.66 2 1 C1.34 2.03125 0.68 3.0625 0 4.125 C-3.30907956 10.77861355 -3.16899307 18.63659272 -1.26953125 25.7265625 C1.64977514 32.8520532 6.48391596 37.03368798 13 41 C16.36551123 42.12183708 19.09060232 42.20800968 22.63671875 42.31640625 C23.93544922 42.35830078 25.23417969 42.40019531 26.57226562 42.44335938 C27.94400761 42.48316987 29.31575244 42.52288216 30.6875 42.5625 C32.07097645 42.60570835 33.45444027 42.64932339 34.83789062 42.69335938 C38.22515719 42.79958028 41.61249799 42.90162358 45 43 C45 41.68 45 40.36 45 39 C45.66 39 46.32 39 47 39 C47 40.98 47 42.96 47 45 C42.9476188 45.15051702 38.8963616 45.25820666 34.84179688 45.32958984 C33.46846109 45.35940316 32.09530947 45.40007124 30.72265625 45.45263672 C19.80913174 45.85950057 11.0311014 44.37741599 2.67089844 36.92333984 C1 35 1 35 1 33 C0.01 32.67 -0.98 32.34 -2 32 C-5.38063758 25.36393365 -6.06671682 17.27653256 -5 10 C-3.65910744 6.44291002 -1.9999642 3.22851364 0 0 Z " fill="#02064D" transform="translate(13,141)"/>
<path d="M0 0 C3.86567683 0.8434204 7.20919093 2.39880125 10.78125 4.0625 C15.06965686 5.8745029 18.77720973 6.16056191 23.4375 6.1875 C24.54996094 6.20167969 25.66242188 6.21585937 26.80859375 6.23046875 C29.96567188 6.00247902 32.15707747 5.34441009 35 4 C30.23561523 8.92319759 30.23561523 8.92319759 26.86328125 9.1328125 C13.15135967 9.0908158 13.15135967 9.0908158 8 6 C7.67 6.99 7.34 7.98 7 9 C6.01 9.66 5.02 10.32 4 11 C4 11.66 4 12.32 4 13 C1.69 13 -0.62 13 -3 13 C-4.1484375 11.296875 -4.1484375 11.296875 -5 9 C-4.1015625 6.640625 -4.1015625 6.640625 -2.625 4.25 C-2.14289063 3.45078125 -1.66078125 2.6515625 -1.1640625 1.828125 C-0.77992187 1.22484375 -0.39578125 0.6215625 0 0 Z " fill="#051159" transform="translate(122,87)"/>
<path d="M0 0 C1.59242535 0.02010392 3.18487533 0.03834779 4.77734375 0.0546875 C8.64434719 0.09492687 12.50786859 0.17325428 16.375 0.25 C16.375 5.53 16.375 10.81 16.375 16.25 C15.715 16.25 15.055 16.25 14.375 16.25 C14.375 15.59 14.375 14.93 14.375 14.25 C13.385 13.92 12.395 13.59 11.375 13.25 C12.365 13.25 13.355 13.25 14.375 13.25 C14.375 9.62 14.375 5.99 14.375 2.25 C9.83957036 2.31943354 5.3050144 2.40765953 0.77026367 2.51245117 C-0.76869926 2.54546921 -2.30777656 2.57357122 -3.84692383 2.59643555 C-12.21834865 2.72413985 -19.79277584 2.9264282 -27.625 6.25 C-27.625 5.59 -27.625 4.93 -27.625 4.25 C-18.66130336 -0.70222605 -9.90817355 -0.21875992 0 0 Z " fill="#030B52" transform="translate(47.625,123.75)"/>
<path d="M0 0 C6.27 0 12.54 0 19 0 C19 0.33 19 0.66 19 1 C11.08 1.495 11.08 1.495 3 2 C3.66 5.63 4.32 9.26 5 13 C7.31 13.66 9.62 14.32 12 15 C11.01 15.33 10.02 15.66 9 16 C9 16.66 9 17.32 9 18 C12.63 18 16.26 18 20 18 C20 18.66 20 19.32 20 20 C12.46956015 20.57679965 6.75850226 19.39973144 0 16 C-1.87666329 14.12333671 -1.63286005 11.42523027 -2.01171875 8.91015625 C-2 7 -2 7 0 5 C0.66 7.97 1.32 10.94 2 14 C2.33 13.67 2.66 13.34 3 13 C2.58219602 10.79995528 2.0906992 8.61368072 1.5625 6.4375 C0.7890625 3.2509375 0.7890625 3.2509375 0 0 Z " fill="#060C4E" transform="translate(38,47)"/>
<path d="M0 0 C2.52703984 3.79055975 1.82110311 4.64815354 1 9 C0.73399603 14.58608346 1.37178218 18.60652847 3 24 C3.125 26.9375 3.125 26.9375 3 29 C-1.04479957 25.16808462 -3.703318 22.63908984 -4.3359375 17.01171875 C-4.41733024 10.08519647 -4.18225028 5.61989881 0 0 Z " fill="#05105D" transform="translate(20,144)"/>
<path d="M0 0 C0.33 0.66 0.66 1.32 1 2 C0.69916504 2.87479004 0.39833008 3.74958008 0.08837891 4.65087891 C-1.14100357 8.4338912 -1.31872192 11.61341328 -1.4140625 15.5859375 C-1.43342865 16.28772125 -1.4527948 16.989505 -1.4727478 17.71255493 C-1.53207569 19.93324999 -1.57873917 22.15399823 -1.625 24.375 C-1.66322302 25.88934434 -1.70227722 27.40366794 -1.7421875 28.91796875 C-1.83928884 32.61186543 -1.91922413 36.30556666 -2 40 C-7.28 40 -12.56 40 -18 40 C-18.1953125 31.6015625 -18.1953125 31.6015625 -18 29 C-17.34 28.34 -16.68 27.68 -16 27 C-15.67 30.63 -15.34 34.26 -15 38 C-11.37 38 -7.74 38 -4 38 C-4.01571045 37.12786865 -4.0314209 36.2557373 -4.04760742 35.35717773 C-4.09900821 32.09376982 -4.13648093 28.83079768 -4.16479492 25.56713867 C-4.17979877 24.15984266 -4.20020863 22.75259276 -4.22631836 21.34545898 C-4.26307665 19.31222093 -4.27980984 17.27960568 -4.29296875 15.24609375 C-4.3086792 14.02591553 -4.32438965 12.8057373 -4.34057617 11.54858398 C-3.95199345 7.49980273 -3.00244428 3.00244428 0 0 Z " fill="#050B4C" transform="translate(229,66)"/>
<path d="M0 0 C0.76183594 -0.01675781 1.52367187 -0.03351562 2.30859375 -0.05078125 C5.23253404 0.42049509 6.52538703 1.15689724 8.5625 3.3125 C9.57784359 8.5534647 9.33671418 13.66729486 7.0625 18.5 C3.66502563 20.96316892 0.76200436 21.89978701 -3.4375 21.3125 C-5.8961125 19.89646368 -7.42689284 18.37337234 -9.4375 16.3125 C-6.4375 16.3125 -6.4375 16.3125 -3.4375 18.3125 C-0.6217234 18.37823798 1.76568424 17.85381918 4.5625 17.3125 C5.91341528 14.61066945 5.90108058 12.19441794 6.125 9.1875 C6.20878906 8.09179688 6.29257813 6.99609375 6.37890625 5.8671875 C6.46978516 4.60261719 6.46978516 4.60261719 6.5625 3.3125 C-0.17321219 2.03618768 -0.17321219 2.03618768 -6.4375 4.3125 C-8.57387125 7.26272696 -8.63609326 9.73782128 -8.4375 13.3125 C-9.4275 13.8075 -9.4275 13.8075 -10.4375 14.3125 C-11.57421875 12.5703125 -11.57421875 12.5703125 -12.4375 10.3125 C-11.64453125 8.2421875 -11.64453125 8.2421875 -10.25 6.1875 C-9.57904297 5.16269531 -9.57904297 5.16269531 -8.89453125 4.1171875 C-6.254435 0.84714872 -4.0445783 0.02046161 0 0 Z " fill="#040B4C" transform="translate(204.4375,63.6875)"/>
<path d="M0 0 C0 4.16151483 -2.31425548 6.09485663 -5 9 C-5.5053125 9.45375 -6.010625 9.9075 -6.53125 10.375 C-11.55487412 15.93305221 -12.57582238 24.31935616 -12.25 31.5078125 C-11.58402787 38.1467222 -9.23220824 42.5456669 -5.4375 47.88671875 C-4.09070952 49.86664714 -3.01628192 51.83551496 -2 54 C-9.00881836 49.32745442 -12.79518092 42.24906556 -14.66796875 34.08984375 C-16.02473563 22.74088781 -12.47499373 14.23787005 -5.9375 5.125 C-4.0927636 3.10174072 -2.2613251 1.5344706 0 0 Z " fill="#040A48" transform="translate(18,129)"/>
<path d="M0 0 C3.33987351 1.11329117 3.69901261 1.61590308 5.55859375 4.421875 C6.26145508 5.46601562 6.26145508 5.46601562 6.97851562 6.53125 C7.45998047 7.2634375 7.94144531 7.995625 8.4375 8.75 C9.39273186 10.18349235 10.34972809 11.61581075 11.30859375 13.046875 C11.76347168 13.72814453 12.21834961 14.40941406 12.68701172 15.11132812 C13.83246127 16.75900342 15.08255618 18.33293107 16.34765625 19.890625 C18 22 18 22 18 24 C18.433125 23.505 18.86625 23.01 19.3125 22.5 C21 21 21 21 24 21 C22.35 22.65 20.7 24.3 19 26 C14.52491093 21.94445053 11.22419122 17.26901535 7.76953125 12.328125 C6.21041191 9.92126034 6.21041191 9.92126034 4 9 C4.99 10.98 5.98 12.96 7 15 C3.0884532 13.52041491 1.7725476 11.46042529 -0.25 7.875 C-1.03117188 6.50988281 -1.03117188 6.50988281 -1.828125 5.1171875 C-2.21484375 4.41851562 -2.6015625 3.71984375 -3 3 C-2.01 3 -1.02 3 0 3 C0 2.01 0 1.02 0 0 Z " fill="#040B4F" transform="translate(17,75)"/>
<path d="M0 0 C8.25 0 16.5 0 25 0 C25 5.94 25 11.88 25 18 C23.68 18.33 22.36 18.66 21 19 C20.67 19.66 20.34 20.32 20 21 C16.37 20.67 12.74 20.34 9 20 C9 19.34 9 18.68 9 18 C10.19625 17.855625 11.3925 17.71125 12.625 17.5625 C16.1005158 17.12960657 19.54950034 16.60383744 23 16 C22.814375 15.38125 22.62875 14.7625 22.4375 14.125 C22 11 22 11 23 1 C15.41 1 7.82 1 0 1 C0 0.67 0 0.34 0 0 Z " fill="#0A146C" transform="translate(38,45)"/>
<path d="M0 0 C0.66 0 1.32 0 2 0 C1.67854004 1.13695312 1.35708008 2.27390625 1.02587891 3.4453125 C-0.09656011 7.95139494 -0.3444612 12.24721105 -0.4140625 16.875 C-0.43342865 17.68493408 -0.4527948 18.49486816 -0.4727478 19.3293457 C-0.53196002 21.88612734 -0.57869246 24.44295545 -0.625 27 C-0.66323367 28.7461121 -0.70228843 30.49220642 -0.7421875 32.23828125 C-0.83761252 36.4920411 -0.92185549 40.74588904 -1 45 C-0.34 45.33 0.32 45.66 1 46 C-0.98 46.495 -0.98 46.495 -3 47 C-3.04980918 42.03785631 -3.08591147 37.07586139 -3.10986328 32.11352539 C-3.11985897 30.42892925 -3.13346004 28.74435019 -3.15087891 27.05981445 C-3.17541276 24.62446859 -3.18654758 22.18935408 -3.1953125 19.75390625 C-3.20563507 19.01290176 -3.21595764 18.27189728 -3.22659302 17.50843811 C-3.22783679 11.57973092 -2.68616474 5.37232949 0 0 Z " fill="#05084F" transform="translate(135,143)"/>
<path d="M0 0 C0.83920486 0.0028299 1.67840973 0.00565979 2.54304504 0.00857544 C5.22285228 0.01976865 7.90232506 0.04487149 10.58203125 0.0703125 C12.39908371 0.08034342 14.21614142 0.08946907 16.03320312 0.09765625 C20.487108 0.11970516 24.94076292 0.15422899 29.39453125 0.1953125 C29.39453125 0.8553125 29.39453125 1.5153125 29.39453125 2.1953125 C16.85453125 2.1953125 4.31453125 2.1953125 -8.60546875 2.1953125 C-8.60546875 5.1653125 -8.60546875 8.1353125 -8.60546875 11.1953125 C-8.93546875 11.1953125 -9.26546875 11.1953125 -9.60546875 11.1953125 C-10.26546875 8.2253125 -10.92546875 5.2553125 -11.60546875 2.1953125 C-7.72053713 -0.39464191 -4.49979639 -0.05694292 0 0 Z " fill="#081251" transform="translate(235.60546875,44.8046875)"/>
<path d="M0 0 C0.66 0 1.32 0 2 0 C2 3.3 2 6.6 2 10 C-5.92 9.67 -13.84 9.34 -22 9 C-21.67 8.01 -21.34 7.02 -21 6 C-11.1 5.505 -11.1 5.505 -1 5 C-0.67 3.35 -0.34 1.7 0 0 Z " fill="#08156C" transform="translate(60,130)"/>
<path d="M0 0 C1.546875 0.99 1.546875 0.99 3.125 2 C2.795 2.66 2.465 3.32 2.125 4 C1.279375 3.505 0.43375 3.01 -0.4375 2.5 C-4.91858303 0.54461831 -8.3114595 0.077693 -12.9921875 1.76171875 C-16.80857485 3.53011802 -19.98124147 5.10727414 -21.875 9 C-22.68508949 11.97720786 -23.32375587 14.96491467 -23.875 18 C-22.225 18 -20.575 18 -18.875 18 C-18.875 18.66 -18.875 19.32 -18.875 20 C-20.855 20 -22.835 20 -24.875 20 C-27.36305013 14.31302827 -27.36305013 14.31302827 -26.10546875 10.9296875 C-22.77608616 5.37014705 -18.88252847 1.31579371 -12.875 -1.3125 C-7.81186967 -2.4728007 -4.54492552 -2.57881086 0 0 Z " fill="#060C4F" transform="translate(172.875,140)"/>
<path d="M0 0 C4.95 0 9.9 0 15 0 C15 4.95 15 9.9 15 15 C10.05 15 5.1 15 0 15 C0 10.05 0 5.1 0 0 Z M2 1 C2 4.96 2 8.92 2 13 C5.96 13 9.92 13 14 13 C14 9.04 14 5.08 14 1 C10.04 1 6.08 1 2 1 Z " fill="#04074A" transform="translate(88,91)"/>
<path d="M0 0 C1.65 0 3.3 0 5 0 C5 5.28 5 10.56 5 16 C3.35 16 1.7 16 0 16 C0 10.72 0 5.44 0 0 Z " fill="#070D50" transform="translate(166,159)"/>
<path d="M0 0 C1.65 0 3.3 0 5 0 C5 5.28 5 10.56 5 16 C3.35 16 1.7 16 0 16 C0 10.72 0 5.44 0 0 Z " fill="#070D51" transform="translate(157,159)"/>
<path d="M0 0 C5.28 0 10.56 0 16 0 C16 1.65 16 3.3 16 5 C10.72 5 5.44 5 0 5 C0 3.35 0 1.7 0 0 Z " fill="#080F54" transform="translate(68,160)"/>
<path d="M0 0 C5.28 0 10.56 0 16 0 C16 1.65 16 3.3 16 5 C10.72 5 5.44 5 0 5 C0 3.35 0 1.7 0 0 Z " fill="#080E57" transform="translate(68,152)"/>
<path d="M0 0 C5.28 0 10.56 0 16 0 C16 1.65 16 3.3 16 5 C10.72 5 5.44 5 0 5 C0 3.35 0 1.7 0 0 Z " fill="#070C55" transform="translate(68,144)"/>
<path d="M0 0 C1.32 0 2.64 0 4 0 C4.71033431 5.52967941 5.30267176 10.49983036 4 16 C2.35 15.67 0.7 15.34 -1 15 C-1.02685412 12.68756208 -1.04632841 10.3750373 -1.0625 8.0625 C-1.07410156 6.77472656 -1.08570313 5.48695313 -1.09765625 4.16015625 C-1 1 -1 1 0 0 Z " fill="#050A51" transform="translate(174,159)"/>
<path d="M0 0 C0.33 0 0.66 0 1 0 C1.15855469 0.90621094 1.31710938 1.81242188 1.48046875 2.74609375 C3.13691185 11.394374 4.92940185 18.81309905 11.1875 25.25 C16.82868675 28.76007176 22.38424702 31.92494014 29 33 C28.67 33.66 28.34 34.32 28 35 C18.57875825 33.5045648 11.26273076 29.54869079 5.28515625 21.97265625 C0.6905353 14.92012257 -0.63744013 8.32213504 0 0 Z " fill="#040A4B" transform="translate(202,155)"/>
<path d="M0 0 C4.95 0 9.9 0 15 0 C15 1.65 15 3.3 15 5 C10.05 5 5.1 5 0 5 C0 3.35 0 1.7 0 0 Z " fill="#080E53" transform="translate(88,83)"/>
<path d="M0 0 C4.95 0 9.9 0 15 0 C15 1.65 15 3.3 15 5 C10.05 5 5.1 5 0 5 C0 3.35 0 1.7 0 0 Z " fill="#080F52" transform="translate(88,75)"/>
<path d="M0 0 C4.95 0 9.9 0 15 0 C15 1.65 15 3.3 15 5 C10.05 5 5.1 5 0 5 C0 3.35 0 1.7 0 0 Z " fill="#060C52" transform="translate(88,67)"/>
<path d="M0 0 C5.28 0 10.56 0 16 0 C15.67 0.99 15.34 1.98 15 3 C10.71 2.67 6.42 2.34 2 2 C2 8.6 2 15.2 2 22 C1.34 22 0.68 22 0 22 C0 14.74 0 7.48 0 0 Z " fill="#040952" transform="translate(68,168)"/>
<path d="M0 0 C0 0.66 0 1.32 0 2 C-9.41002278 6.22323462 -9.41002278 6.22323462 -14 8 C-12.60240095 11.54518884 -12.60240095 11.54518884 -11 15 C-12.27875 15.0825 -13.5575 15.165 -14.875 15.25 C-17.05333418 15.45869931 -17.05333418 15.45869931 -19 16 C-20.5899433 17.92064793 -20.5899433 17.92064793 -21 20 C-21.66 20 -22.32 20 -23 20 C-20.31520866 11.40866771 -14.84559715 6.39596084 -7.171875 2.12890625 C-3.07612457 0 -3.07612457 0 0 0 Z " fill="#051057" transform="translate(227,125)"/>
<path d="M0 0 C2 1.375 2 1.375 4 3 C4 3.66 4 4.32 4 5 C2.33720673 6.0064275 0.67016516 7.00585407 -1 8 C-1.99 9.485 -1.99 9.485 -3 11 C-3.66 10.67 -4.32 10.34 -5 10 C-3.68 8.02 -2.36 6.04 -1 4 C-4.8154422 6.71097209 -6.58434498 8.5507985 -8 13 C-8.27876518 15.0959986 -8.48588744 17.20262611 -8.625 19.3125 C-8.69976562 20.38113281 -8.77453125 21.44976563 -8.8515625 22.55078125 C-8.90054688 23.35902344 -8.94953125 24.16726562 -9 25 C-9.66 24.67 -10.32 24.34 -11 24 C-11.74154522 16.25497217 -10.53588217 10.42290291 -6 4 C-4.04679998 2.2251953 -2.37153111 1.2133415 0 0 Z " fill="#030A4D" transform="translate(60,3)"/>
<path d="M0 0 C1.485 0.99 1.485 0.99 3 2 C3 2.66 3 3.32 3 4 C3.61230469 4.19722656 4.22460938 4.39445312 4.85546875 4.59765625 C7.9889201 6.64667088 8.28982457 8.89564726 9.3125 12.4375 C9.65925781 13.59121094 10.00601563 14.74492187 10.36328125 15.93359375 C11 19 11 19 10 22 C8.0625 21.5 8.0625 21.5 6 20 C5.76705981 18.10320131 5.546263 16.20334541 5.4140625 14.296875 C4.77269884 10.73912184 2.9549447 8.01570469 1.05859375 4.98046875 C0 3 0 3 0 0 Z " fill="#061769" transform="translate(82,16)"/>
<path d="M0 0 C0.33 0.66 0.66 1.32 1 2 C1.66 2.33 2.32 2.66 3 3 C3.625 5.0625 3.625 5.0625 4 7 C4.66 5.68 5.32 4.36 6 3 C8.2384106 10.90331126 8.2384106 10.90331126 7.375 14.875 C5.85797832 17.21948805 4.3483512 18.51271091 2 20 C2.66 18.02 3.32 16.04 4 14 C3.01 14 2.02 14 1 14 C1.04125 12.783125 1.0825 11.56625 1.125 10.3125 C1.13754508 6.78105873 0.59998217 4.19996434 -1 1 C-0.67 0.67 -0.34 0.34 0 0 Z " fill="#050C4E" transform="translate(26,47)"/>
<path d="M0 0 C0.33 3.63 0.66 7.26 1 11 C-4.625 11 -4.625 11 -8 9 C-8 8.34 -8 7.68 -8 7 C-6.35 7 -4.7 7 -3 7 C-3 5.68 -3 4.36 -3 3 C-4.65 3 -6.3 3 -8 3 C-8 2.34 -8 1.68 -8 1 C-5.23735711 0.40267181 -2.83967231 0 0 0 Z " fill="#051263" transform="translate(101,93)"/>
<path d="M0 0 C0.66 0.33 1.32 0.66 2 1 C2.226875 2.010625 2.45375 3.02125 2.6875 4.0625 C3.95082827 9.09493161 7.46971572 12.36588383 11 16 C10.34 16.66 9.68 17.32 9 18 C0.2196468 11.098234 0.2196468 11.098234 -1 5 C-1.309375 3.824375 -1.309375 3.824375 -1.625 2.625 C-1.74875 2.08875 -1.8725 1.5525 -2 1 C-1.34 0.67 -0.68 0.34 0 0 Z " fill="#0A1669" transform="translate(60,20)"/>
<path d="M0 0 C1.32 0.33 2.64 0.66 4 1 C3.34 1 2.68 1 2 1 C2.33 4.3 2.66 7.6 3 11 C3.66 10.67 4.32 10.34 5 10 C9.86065303 9.59494558 12.12100708 9.54480724 16.5 11.8125 C17.325 12.534375 18.15 13.25625 19 14 C19 14.99 19 15.98 19 17 C18.566875 16.525625 18.13375 16.05125 17.6875 15.5625 C14.53690679 12.64528406 11.44656633 12.91405665 7.375 13 C5.58372817 13.03761201 3.79105866 13.04667254 2 13 C0.18884044 11.18884044 0.61800552 8.38721773 0.4375 5.9375 C0.35371094 4.83277344 0.26992187 3.72804688 0.18359375 2.58984375 C0.09271484 1.30787109 0.09271484 1.30787109 0 0 Z " fill="#040848" transform="translate(130,1)"/>
<path d="M0 0 C0.71542969 0.28875 1.43085938 0.5775 2.16796875 0.875 C10.44516658 3.95887189 19.27534578 6.03508739 27.87890625 2.9765625 C28.57886719 2.65429688 29.27882812 2.33203125 30 2 C25.23561523 6.92319759 25.23561523 6.92319759 21.86328125 7.1328125 C13.40115635 7.10689481 7.23496466 6.57722254 0 2 C0 1.34 0 0.68 0 0 Z " fill="#070B4F" transform="translate(127,89)"/>
<path d="M0 0 C1.11375 0.3403125 1.11375 0.3403125 2.25 0.6875 C0.0822078 2.96368181 -2.07727719 5.01704824 -4.75 6.6875 C-5.74 6.3575 -6.73 6.0275 -7.75 5.6875 C-8.08 7.0075 -8.41 8.3275 -8.75 9.6875 C-10.07 9.0275 -11.39 8.3675 -12.75 7.6875 C-12.75 6.6975 -12.75 5.7075 -12.75 4.6875 C-11.8425 4.419375 -10.935 4.15125 -10 3.875 C-6.77916435 2.90025547 -6.77916435 2.90025547 -4.6875 1 C-2.75 -0.3125 -2.75 -0.3125 0 0 Z " fill="#081668" transform="translate(37.75,68.3125)"/>
<path d="M0 0 C0.66 0.33 1.32 0.66 2 1 C-1.75 7.875 -1.75 7.875 -4 9 C-4.46954261 12.04581269 -4.46954261 12.04581269 -4.625 15.5625 C-4.69976562 16.76003906 -4.77453125 17.95757813 -4.8515625 19.19140625 C-4.90054688 20.11824219 -4.94953125 21.04507812 -5 22 C-5.66 22 -6.32 22 -7 22 C-7.56396867 9.09138381 -7.56396867 9.09138381 -4 4 C-1.8125 1.625 -1.8125 1.625 0 0 Z " fill="#09156A" transform="translate(58,6)"/>
<path d="M0 0 C3.66786393 1.50349377 5.68910393 3.63728792 8.25 6.625 C8.95640625 7.44226563 9.6628125 8.25953125 10.390625 9.1015625 C10.92171875 9.72804688 11.4528125 10.35453125 12 11 C11.34 12.32 10.68 13.64 10 15 C9.938125 14.4225 9.87625 13.845 9.8125 13.25 C8.67972699 10.11309013 6.65802405 8.90832496 4 7 C4 7.66 4 8.32 4 9 C1.37812506 7.95125002 0.20628639 7.35068687 -1.25 4.875 C-1.4975 4.25625 -1.745 3.6375 -2 3 C-1.01 3.33 -0.02 3.66 1 4 C0.67 2.68 0.34 1.36 0 0 Z " fill="#030A4B" transform="translate(35,85)"/>
<path d="M0 0 C0.99 0.33 1.98 0.66 3 1 C4.203125 4.0546875 4.203125 4.0546875 5.25 7.875 C5.60578125 9.13054688 5.9615625 10.38609375 6.328125 11.6796875 C7 15 7 15 6 18 C3.31362289 15.31362289 3.01656766 12.6215223 2 9 C1.34 8.01 0.68 7.02 0 6 C-0.125 2.8125 -0.125 2.8125 0 0 Z " fill="#0B135F" transform="translate(35,45)"/>
<path d="M0 0 C1.46953125 0.00966797 1.46953125 0.00966797 2.96875 0.01953125 C3.98453125 0.03628906 5.0003125 0.05304687 6.046875 0.0703125 C7.078125 0.07933594 8.109375 0.08835938 9.171875 0.09765625 C11.71377787 0.12119239 14.2552078 0.15407227 16.796875 0.1953125 C16.796875 0.5253125 16.796875 0.8553125 16.796875 1.1953125 C15.61351562 1.23269531 14.43015625 1.27007812 13.2109375 1.30859375 C0.60374726 1.41609409 0.60374726 1.41609409 -11.203125 5.1953125 C-11.533125 6.1853125 -11.863125 7.1753125 -12.203125 8.1953125 C-12.863125 7.8653125 -13.523125 7.5353125 -14.203125 7.1953125 C-9.58491285 2.32053301 -6.79687133 -0.07903339 0 0 Z " fill="#040A4A" transform="translate(135.203125,51.8046875)"/>
<path d="M0 0 C0.66 0.33 1.32 0.66 2 1 C2 1.66 2 2.32 2 3 C0.68 3 -0.64 3 -2 3 C-2.33 7.95 -2.66 12.9 -3 18 C-3.66 18 -4.32 18 -5 18 C-5 12.72 -5 7.44 -5 2 C-3.35 1.34 -1.7 0.68 0 0 Z " fill="#010548" transform="translate(152,172)"/>
<path d="M0 0 C0.99 0.33 1.98 0.66 3 1 C3.94921875 3.1796875 3.94921875 3.1796875 4.6875 5.875 C4.93886719 6.75929688 5.19023437 7.64359375 5.44921875 8.5546875 C6 11 6 11 6 14 C1.57142857 8.85714286 1.57142857 8.85714286 1 5 C-0.65 5 -2.3 5 -4 5 C-2.68 3.35 -1.36 1.7 0 0 Z " fill="#060F56" transform="translate(13,54)"/>
<path d="M0 0 C4.25983217 3.49914785 6.15672955 7.92120163 8 13 C8 13.66 8 14.32 8 15 C7.34 15 6.68 15 6 15 C5.34 14.34 4.68 13.68 4 13 C3.67 13 3.34 13 3 13 C1.66666667 9 0.33333333 5 -1 1 C-0.67 0.67 -0.34 0.34 0 0 Z " fill="#09156A" transform="translate(92,13)"/>
<path d="M0 0 C0.33 0 0.66 0 1 0 C1.28875 1.11375 1.5775 2.2275 1.875 3.375 C2.69241329 7.00291092 2.69241329 7.00291092 5 9 C5.125 11.625 5.125 11.625 5 14 C-0.77040816 8.67346939 -0.77040816 8.67346939 -1 5 C-0.5625 2.25 -0.5625 2.25 0 0 Z " fill="#09156D" transform="translate(18,159)"/>
<path d="M0 0 C1.32 0 2.64 0 4 0 C4.33 1.65 4.66 3.3 5 5 C3 6 1 7 -1 8 C-1.625 5.6875 -1.625 5.6875 -2 3 C-1.34 2.01 -0.68 1.02 0 0 Z " fill="#07196B" transform="translate(123,89)"/>
<path d="M0 0 C0.66 0.66 1.32 1.32 2 2 C1.625 5.125 1.625 5.125 1 8 C2.65 8 4.3 8 6 8 C6 8.66 6 9.32 6 10 C4.02 10 2.04 10 0 10 C-1.125 6.6875 -1.125 6.6875 -2 3 C-1.34 2.01 -0.68 1.02 0 0 Z " fill="#010547" transform="translate(148,150)"/>
<path d="M0 0 C0 0.66 0 1.32 0 2 C-0.59167969 2.25394531 -1.18335938 2.50789063 -1.79296875 2.76953125 C-5.3124229 4.30247457 -8.66468578 5.79310399 -11.9375 7.8125 C-12.618125 8.204375 -13.29875 8.59625 -14 9 C-14.66 8.67 -15.32 8.34 -16 8 C-14.58531689 7.03874097 -13.1681636 6.08111675 -11.75 5.125 C-10.96109375 4.59132812 -10.1721875 4.05765625 -9.359375 3.5078125 C-3.87046632 0 -3.87046632 0 0 0 Z " fill="#030948" transform="translate(227,125)"/>
<path d="M0 0 C1.828125 0.1640625 1.828125 0.1640625 4 1 C5.484375 3.3984375 5.484375 3.3984375 6.75 6.375 C7.39195313 7.84066406 7.39195313 7.84066406 8.046875 9.3359375 C9 12 9 12 9 15 C8.34 15 7.68 15 7 15 C6.74605469 14.25234375 6.49210937 13.5046875 6.23046875 12.734375 C5.88628906 11.74953125 5.54210937 10.7646875 5.1875 9.75 C4.85105469 8.77546875 4.51460938 7.8009375 4.16796875 6.796875 C3.05867958 4.14051698 1.8306717 2.20310061 0 0 Z " fill="#03084A" transform="translate(80,19)"/>
<path d="M0 0 C3.33717549 1.3809002 5.22301036 2.8201238 7 6 C6.6875 8.25 6.6875 8.25 6 10 C2.49797737 7.66531825 1.66176363 5.79831687 0 2 C0 1.34 0 0.68 0 0 Z " fill="#0B156C" transform="translate(11,69)"/>
<path d="M0 0 C4.29 0.66 8.58 1.32 13 2 C13 2.66 13 3.32 13 4 C11.20793453 3.85915204 9.41635083 3.71216299 7.625 3.5625 C6.62726562 3.48128906 5.62953125 3.40007812 4.6015625 3.31640625 C2 3 2 3 0 2 C0 1.34 0 0.68 0 0 Z " fill="#08156D" transform="translate(40,70)"/>
<path d="M0 0 C0.33 0 0.66 0 1 0 C1.66 4.62 2.32 9.24 3 14 C0.69 14.33 -1.62 14.66 -4 15 C-4 14.34 -4 13.68 -4 13 C-3.01 12.67 -2.02 12.34 -1 12 C-0.67 8.04 -0.34 4.08 0 0 Z " fill="#081151" transform="translate(59,48)"/>
<path d="M0 0 C4.06762061 1.35587354 4.86334252 3.9484594 6.6875 7.5625 C7.00783203 8.17802734 7.32816406 8.79355469 7.65820312 9.42773438 C8.44746371 10.9473555 9.22487915 12.47311811 10 14 C6.08402356 12.69467452 5.46169654 11.02734726 3.3125 7.5625 C2.68988281 6.57378906 2.06726563 5.58507812 1.42578125 4.56640625 C0 2 0 2 0 0 Z " fill="#030849" transform="translate(8,60)"/>
<path d="M0 0 C0.53625 0.350625 1.0725 0.70125 1.625 1.0625 C4.7634242 2.30135166 6.76212444 1.77427459 10 1 C10.66 0.67 11.32 0.34 12 0 C12 1.32 12 2.64 12 4 C8.04 4 4.08 4 0 4 C0 2.68 0 1.36 0 0 Z " fill="#0A166A" transform="translate(90,58)"/>
<path d="M0 0 C0.66 0 1.32 0 2 0 C2.66 3.63 3.32 7.26 4 11 C1 9 1 9 0.48828125 6.8359375 C0.43027344 6.02382813 0.37226562 5.21171875 0.3125 4.375 C0.24675781 3.55773438 0.18101563 2.74046875 0.11328125 1.8984375 C0.07589844 1.27195313 0.03851563 0.64546875 0 0 Z " fill="#08176E" transform="translate(38,52)"/>
<path d="M0 0 C0 0.99 0 1.98 0 3 C-2.64 3 -5.28 3 -8 3 C-8 2.34 -8 1.68 -8 1 C-5.07175348 0.02391783 -3.04386724 -0.08226668 0 0 Z " fill="#05115D" transform="translate(34,186)"/>
<path d="M0 0 C2.62187494 1.04874998 3.79371361 1.64931313 5.25 4.125 C5.4975 4.74375 5.745 5.3625 6 6 C4.68 6.33 3.36 6.66 2 7 C1.34 4.69 0.68 2.38 0 0 Z " fill="#070F5A" transform="translate(22,168)"/>
<path d="M0 0 C0.99 0.33 1.98 0.66 3 1 C2.50628906 1.40992188 2.01257812 1.81984375 1.50390625 2.2421875 C0.86324219 2.78101563 0.22257812 3.31984375 -0.4375 3.875 C-1.07558594 4.40867188 -1.71367187 4.94234375 -2.37109375 5.4921875 C-4.10805004 6.9222757 -4.10805004 6.9222757 -5 9 C-5.66 8.67 -6.32 8.34 -7 8 C-6.21366078 6.85050412 -5.42073742 5.70551011 -4.625 4.5625 C-4.18414063 3.92441406 -3.74328125 3.28632813 -3.2890625 2.62890625 C-2 1 -2 1 0 0 Z " fill="#000949" transform="translate(27,141)"/>
<path d="M0 0 C0 4.38968456 -2.12805101 5.76905739 -5 9 C-5.33 7.68 -5.66 6.36 -6 5 C-4.02 3.35 -2.04 1.7 0 0 Z " fill="#040E53" transform="translate(18,129)"/>
<path d="M0 0 C1.99954746 -0.04254356 4.00041636 -0.04080783 6 0 C7 1 7 1 7.0625 3.5625 C7.041875 4.366875 7.02125 5.17125 7 6 C6.34 6 5.68 6 5 6 C5 4.68 5 3.36 5 2 C3.35 2 1.7 2 0 2 C0 1.34 0 0.68 0 0 Z " fill="#010854" transform="translate(93,94)"/>
<path d="M0 0 C0.66 0 1.32 0 2 0 C2.66 1.65 3.32 3.3 4 5 C2.68 5.33 1.36 5.66 0 6 C-1.125 2.25 -1.125 2.25 0 0 Z " fill="#091569" transform="translate(54,32)"/>
<path d="M0 0 C0.33 0 0.66 0 1 0 C1 1.65 1 3.3 1 5 C1.99 4.67 2.98 4.34 4 4 C4 5.32 4 6.64 4 8 C3.01 8 2.02 8 1 8 C0.34 5.69 -0.32 3.38 -1 1 C-0.67 0.67 -0.34 0.34 0 0 Z " fill="#051058" transform="translate(182,152)"/>
<path d="M0 0 C1.5 1.375 1.5 1.375 3 3 C3 3.66 3 4.32 3 5 C0.03 5 -2.94 5 -6 5 C-6 4.67 -6 4.34 -6 4 C-4.35 3.67 -2.7 3.34 -1 3 C-0.67 2.01 -0.34 1.02 0 0 Z " fill="#070F43" transform="translate(58,34)"/>
</svg>
