<?xml version="1.0" encoding="UTF-8"?>
<svg version="1.1" xmlns="http://www.w3.org/2000/svg" width="200" height="200">
<path d="M0 0 C1.76072584 1.76072584 1.12834784 4.0789629 1.13894653 6.4239502 C1.13591019 7.5598761 1.13591019 7.5598761 1.1328125 8.71875 C1.13376923 9.49182495 1.13472595 10.2648999 1.13571167 11.06140137 C1.13639341 12.69897544 1.13453957 14.33655219 1.13037109 15.97412109 C1.12502271 18.48931921 1.13031626 21.00433873 1.13671875 23.51953125 C1.13605797 25.10677123 1.1347768 26.6940111 1.1328125 28.28125 C1.13483673 29.03853394 1.13686096 29.79581787 1.13894653 30.5760498 C1.11495132 35.88504868 1.11495132 35.88504868 0 37 C-2.52596259 37.23653523 -5.03107207 37.42173692 -7.5625 37.5625 C-8.27341797 37.60568359 -8.98433594 37.64886719 -9.71679688 37.69335938 C-11.47761912 37.79971777 -13.2387832 37.90038846 -15 38 C-17.52775351 34.20836973 -17.22443035 31.19125969 -17.125 26.8125 C-17.11597656 26.06291016 -17.10695312 25.31332031 -17.09765625 24.54101562 C-17.07412578 22.69387346 -17.03825561 20.84689588 -17 19 C-30.24775334 20.14511132 -42.86901341 23.19817489 -55.73193359 26.48095703 C-58 27 -58 27 -60 27 C-55.14472322 45.44781431 -49.04010491 63.15253175 -40 80 C-32.65134537 76.70027872 -29.14196093 70.48724645 -25.80517578 63.45898438 C-21.12798822 53.69185613 -21.12798822 53.69185613 -17.484375 51.45703125 C-14.86554946 50.92282297 -12.66298467 50.83382976 -10 51 C-9.20464844 50.97808594 -8.40929687 50.95617187 -7.58984375 50.93359375 C-5.72708275 50.88431436 -3.86213598 50.931032 -2 51 C-2.86472757 66.2768537 -12.77940809 79.34188275 -23 90 C-23.6496875 90.71285156 -24.299375 91.42570312 -24.96875 92.16015625 C-29.87339439 97.37636616 -35.45093818 102.00004156 -42 105 C-44.06640625 105.05859375 -44.06640625 105.05859375 -46 104 C-47.5810937 102.01683084 -48.8798152 100.15290638 -50.1875 98 C-50.57478271 97.37625488 -50.96206543 96.75250977 -51.36108398 96.10986328 C-64.96686992 73.86482906 -81.41293077 42.84568471 -80 16 C-73.02455285 12.57528406 -65.94185244 10.39994903 -58.4375 8.4375 C-56.70234131 7.98080933 -56.70234131 7.98080933 -54.93212891 7.51489258 C-37.17285051 2.90801304 -18.45653751 -0.68625878 0 0 Z " fill="#1A196C" transform="translate(96,26)"/>
<path d="M0 0 C3 1 3 1 4.7265625 4.39453125 C5.36424653 5.8650846 5.99673389 7.33789843 6.625 8.8125 C14.11393118 25.43355463 26.1059586 38.97441083 41.69921875 48.37890625 C44 50 44 50 45 53 C37.76283905 66.62474214 22.77274958 79.2778318 11 89 C10.3090625 89.59167969 9.618125 90.18335938 8.90625 90.79296875 C7.86984375 91.63794922 7.86984375 91.63794922 6.8125 92.5 C6.20019531 93.0053125 5.58789062 93.510625 4.95703125 94.03125 C3 95 3 95 0.57421875 94.89453125 C-4.78646954 93.0317124 -8.80068356 88.70712723 -13 85 C-13.52722656 84.5359375 -14.05445312 84.071875 -14.59765625 83.59375 C-25.23580239 74.16040595 -35.64640043 64.28702713 -43 52 C-40.55520828 49.23632241 -37.96404502 47.27527374 -34.875 45.3125 C-18.30798056 34.44888069 -6.89557787 18.41227599 0 0 Z M0 36 C-1.60956243 37.82197681 -3.12337983 39.65483812 -4.625 41.5625 C-8.68056049 46.5907416 -12.92219508 50.97179722 -18 55 C-12.44964797 61.78376359 -6.23557973 67.85522968 0 74 C4.24646526 72.3034955 7.21694674 69.26582771 10.5 66.1875 C11.06847656 65.66607422 11.63695313 65.14464844 12.22265625 64.60742188 C15.4578012 61.6012141 18.33153872 58.53832733 21 55 C19.69675781 53.82244141 19.69675781 53.82244141 18.3671875 52.62109375 C7.85840765 43.0601885 7.85840765 43.0601885 4.3125 38.75 C3.549375 37.8425 2.78625 36.935 2 36 C1.34 36 0.68 36 0 36 Z " fill="#1A196C" transform="translate(99,81)"/>
<path d="M0 0 C2.68217769 0.06470165 5.32572676 0.19120115 8 0.375 C8.75023438 0.41882813 9.50046875 0.46265625 10.2734375 0.5078125 C15.87159146 0.87159146 15.87159146 0.87159146 17 2 C17.06355678 4.04330293 17.05910834 6.08876814 17.02734375 8.1328125 C17.01340576 9.40697021 16.99946777 10.68112793 16.98510742 11.99389648 C16.97675873 12.66911346 16.96841003 13.34433044 16.95980835 14.04000854 C16.71430997 36.98487142 17.99136608 59.66694263 34.8125 77.1875 C37.01058749 79.53382903 37.01058749 79.53382903 40 80 C40.37511719 79.14535156 40.75023437 78.29070312 41.13671875 77.41015625 C41.64847656 76.30542969 42.16023438 75.20070313 42.6875 74.0625 C43.18636719 72.96035156 43.68523437 71.85820313 44.19921875 70.72265625 C46 68 46 68 48.3125 66.96875 C51.78629773 67.009143 54.15264248 68.01382793 57.3125 69.4375 C58.91544922 70.14712891 58.91544922 70.14712891 60.55078125 70.87109375 C61.35902344 71.24363281 62.16726562 71.61617188 63 72 C62.48005241 77.40074598 60.55782932 81.16067514 57.875 85.75 C57.47192627 86.44939697 57.06885254 87.14879395 56.65356445 87.86938477 C47.75165731 103.13507378 47.75165731 103.13507378 44.1171875 104.9296875 C37.50818201 105.14917477 30.23837213 97.5585483 25.5 93.5 C10.30688503 79.17630506 -0.17238767 59.99470235 -1.09413147 38.83956909 C-1.13128779 36.42635362 -1.13865856 34.01505634 -1.1328125 31.6015625 C-1.13376923 30.72599701 -1.13472595 29.85043152 -1.13571167 28.94833374 C-1.1363885 27.11122566 -1.13456908 25.27411513 -1.13037109 23.43701172 C-1.12497689 20.6129021 -1.13035264 17.78894872 -1.13671875 14.96484375 C-1.13605864 13.17708298 -1.13477887 11.38932231 -1.1328125 9.6015625 C-1.13584885 8.32981674 -1.13584885 8.32981674 -1.13894653 7.03237915 C-1.11497642 1.11497642 -1.11497642 1.11497642 0 0 Z " fill="#D9143A" transform="translate(103,24)"/>
<path d="M0 0 C18.96912275 2.34542299 37.3649614 6.48015335 55 14 C55.39007633 26.62872123 50.82911006 39.03902003 47 50.9375 C46.66806641 51.99831787 46.33613281 53.05913574 45.99414062 54.15209961 C45.66607422 55.14218018 45.33800781 56.13226074 45 57.15234375 C44.566875 58.4825354 44.566875 58.4825354 44.125 59.83959961 C43 62 43 62 41.07495117 63.35253906 C37.74153139 64.39268841 35.48203802 63.07960534 32.3125 61.8125 C30.57419922 61.14154297 30.57419922 61.14154297 28.80078125 60.45703125 C26 59 26 59 25 56 C25.81611561 53.51900854 26.69802151 51.16045888 27.6875 48.75 C30.76362783 40.95642452 33.01243849 33.13731063 35 25 C34.21302734 24.85304688 34.21302734 24.85304688 33.41015625 24.703125 C26.98956707 23.46387651 20.63904862 21.98674482 14.27978516 20.47070312 C8.87603531 19.18899025 3.46000184 18.01955808 -2 17 C-2.05418326 14.91695462 -2.09287551 12.83350232 -2.125 10.75 C-2.14820312 9.58984375 -2.17140625 8.4296875 -2.1953125 7.234375 C-2.0103949 4.17213954 -1.60823023 2.55797249 0 0 Z " fill="#D9143A" transform="translate(126,26)"/>
<path d="M0 0 C1.79158489 -0.02696365 3.58328473 -0.04637917 5.375 -0.0625 C6.37273437 -0.07410156 7.37046875 -0.08570312 8.3984375 -0.09765625 C11 0 11 0 13 1 C13.10348626 6.73773845 12.99564412 12.34125321 12.38671875 18.05078125 C11.82529483 25.08485702 12.58875451 31.56478388 13.75 38.5 C13.92015625 39.63953125 14.0903125 40.7790625 14.265625 41.953125 C15.13808846 47.41885195 16.03520426 51.28152454 19 56 C19 56.66 19 57.32 19 58 C19.66 58 20.32 58 21 58 C21 58.66 21 59.32 21 60 C21.60070312 60.07863281 22.20140625 60.15726563 22.8203125 60.23828125 C25.72594935 61.25369198 26.32147066 62.56756492 27.875 65.1875 C30.53811305 69.41874053 33.25721362 72.68253025 37 76 C37.66 76 38.32 76 39 76 C39.37511719 75.14535156 39.75023437 74.29070312 40.13671875 73.41015625 C40.64847656 72.30542969 41.16023438 71.20070313 41.6875 70.0625 C42.18636719 68.96035156 42.68523437 67.85820313 43.19921875 66.72265625 C45 64 45 64 47.58203125 62.99609375 C50 63 50 63 52 65 C49.525 65.495 49.525 65.495 47 66 C46.9071875 66.99 46.9071875 66.99 46.8125 68 C45.6762206 72.19549318 44.03958423 75.83729337 41 79 C37.1875 79.5 37.1875 79.5 34 79 C33.67 77.68 33.34 76.36 33 75 C30.36 74.67 27.72 74.34 25 74 C24.67 74.99 24.34 75.98 24 77 C21.9375 78.1875 21.9375 78.1875 20 79 C17.0625 77.4375 17.0625 77.4375 14 75 C13.125 71.25 13.125 71.25 13 68 C12.34 68 11.68 68 11 68 C8.01823546 62.35468294 5.42792278 56.83423293 3.578125 50.71484375 C3.13797372 48.98992094 3.13797372 48.98992094 2 48 C1.78964095 45.87887958 1.63149899 43.75246581 1.5 41.625 C1.28419953 38.14907092 1.1024508 35.3073524 0 32 C-0.0845387 29.5589224 -0.11605786 27.14740787 -0.09765625 24.70703125 C-0.0962413 24.00100266 -0.09482635 23.29497406 -0.09336853 22.56755066 C-0.08777764 20.31582374 -0.07522688 18.06419679 -0.0625 15.8125 C-0.05748382 14.28450665 -0.05292112 12.75651173 -0.04882812 11.22851562 C-0.0378112 7.48563865 -0.02055287 3.74283627 0 0 Z " fill="#D9153B" transform="translate(104,28)"/>
<path d="M0 0 C2.68217769 0.06470165 5.32572676 0.19120115 8 0.375 C8.75023438 0.41882813 9.50046875 0.46265625 10.2734375 0.5078125 C15.87159146 0.87159146 15.87159146 0.87159146 17 2 C17.06355678 4.04330293 17.05910834 6.08876814 17.02734375 8.1328125 C17.01340576 9.40697021 16.99946777 10.68112793 16.98510742 11.99389648 C16.97675873 12.66911346 16.96841003 13.34433044 16.95980835 14.04000854 C16.79067063 29.84802286 17.54997062 44.04139272 22.9765625 59.05078125 C24 62 24 62 24 64 C23.34 64 22.68 64 22 64 C22 63.34 22 62.68 22 62 C21.34 62 20.68 62 20 62 C15.85996626 55.89018179 14.74330519 50.05336545 13.6875 42.8125 C13.51581299 41.67151855 13.34412598 40.53053711 13.16723633 39.35498047 C11.60674785 27.97175304 11.19299932 16.22800273 14 5 C9.71 4.67 5.42 4.34 1 4 C1.11829766 8.50253816 1.24254934 13.00485779 1.37231445 17.50708008 C1.41561833 19.03861018 1.45729667 20.57018715 1.49731445 22.10180664 C1.55512732 24.30369182 1.61878969 26.50534211 1.68359375 28.70703125 C1.70866249 29.73374687 1.70866249 29.73374687 1.73423767 30.78120422 C1.8273555 33.77120104 2.04687437 36.14062311 3 39 C3.23199428 42.25651227 3.38097731 45.51184893 3.5234375 48.7734375 C4.0387476 52.26234031 5.08609151 54.08356801 7 57 C7.56970695 58.5242826 8.09392527 60.06665434 8.5625 61.625 C9.46001596 64.59643702 10.23525461 66.35288191 12 69 C12 69.99 12 70.98 12 72 C12.66 72 13.32 72 14 72 C14.0825 73.11375 14.165 74.2275 14.25 75.375 C14.4975 76.57125 14.745 77.7675 15 79 C16.96672915 80.1500831 16.96672915 80.1500831 19 81 C19.75 83.625 19.75 83.625 20 86 C7.01295946 74.19359951 1.06633234 58.08837613 -1 41 C-1.13634899 37.86645224 -1.14040902 34.73771783 -1.1328125 31.6015625 C-1.13376923 30.72599701 -1.13472595 29.85043152 -1.13571167 28.94833374 C-1.1363885 27.11122566 -1.13456908 25.27411513 -1.13037109 23.43701172 C-1.12497689 20.6129021 -1.13035264 17.78894872 -1.13671875 14.96484375 C-1.13605864 13.17708298 -1.13477887 11.38932231 -1.1328125 9.6015625 C-1.13584885 8.32981674 -1.13584885 8.32981674 -1.13894653 7.03237915 C-1.11497642 1.11497642 -1.11497642 1.11497642 0 0 Z " fill="#B22B48" transform="translate(103,24)"/>
<path d="M0 0 C18.96912275 2.34542299 37.3649614 6.48015335 55 14 C55.18405069 19.23521972 54.57087592 23.90547338 53.3125 29 C53.13750977 29.72823975 52.96251953 30.45647949 52.78222656 31.20678711 C50.94589684 38.61700247 48.55411713 45.8086948 46 53 C45.67 53 45.34 53 45 53 C44.94616152 50.54137599 44.90640962 48.0839245 44.875 45.625 C44.85824219 44.92632812 44.84148437 44.22765625 44.82421875 43.5078125 C44.80655733 41.67102514 44.89696739 39.83398037 45 38 C45.66 37.34 46.32 36.68 47 36 C47.57545405 33.64559063 47.57545405 33.64559063 47.9375 30.9375 C48.79555643 25.73424578 50.17108153 20.93807986 52 16 C51.40832031 15.87882812 50.81664062 15.75765625 50.20703125 15.6328125 C43.48223897 14.20667384 43.48223897 14.20667384 40.375 12.875 C37.86455099 11.78730624 37.86455099 11.78730624 34.4375 12.0625 C30.64619012 11.99356709 29.73777169 11.44443901 27 9 C26.01 8.67 25.02 8.34 24 8 C24 7.34 24 6.68 24 6 C20.04 5.67 16.08 5.34 12 5 C12 4.34 12 3.68 12 3 C6.06 3.495 6.06 3.495 0 4 C-0.33 7.96 -0.66 11.92 -1 16 C-0.34 16.33 0.32 16.66 1 17 C0.01 17 -0.98 17 -2 17 C-2.05418326 14.91695462 -2.09287551 12.83350232 -2.125 10.75 C-2.14820312 9.58984375 -2.17140625 8.4296875 -2.1953125 7.234375 C-2.0103949 4.17213954 -1.60823023 2.55797249 0 0 Z " fill="#C61E42" transform="translate(126,26)"/>
<path d="M0 0 C0.33 0.99 0.66 1.98 1 3 C1.721875 3.061875 2.44375 3.12375 3.1875 3.1875 C6.90589332 4.26170251 8.3763221 6.18434566 11 9 C12.03139899 9.84600828 13.07327632 10.67939584 14.125 11.5 C16.8953267 13.90897974 18.22286005 15.84961554 20 19 C21.29579647 20.36984198 22.61992749 21.7151049 24 23 C23.47599609 23.79664063 23.47599609 23.79664063 22.94140625 24.609375 C22.48636719 25.31578125 22.03132813 26.0221875 21.5625 26.75 C20.88380859 27.79414063 20.88380859 27.79414063 20.19140625 28.859375 C18.91091314 30.92959256 18.91091314 30.92959256 18.48828125 33.1875 C18.32714844 33.785625 18.16601562 34.38375 18 35 C15.10888212 36.52164099 13.28176588 37 10 37 C9.731875 37.639375 9.46375 38.27875 9.1875 38.9375 C8 41 8 41 5 42 C5 42.66 5 43.32 5 44 C3.1875 44.6875 3.1875 44.6875 1 45 C-0.75 43.6875 -0.75 43.6875 -2 42 C-2 41.34 -2 40.68 -2 40 C-2.66 40 -3.32 40 -4 40 C-3.67 39.01 -3.34 38.02 -3 37 C-1.68 38.32 -0.36 39.64 1 41 C5.27201855 39.29958967 8.26281092 36.22054634 11.5625 33.125 C12.13935547 32.59519531 12.71621094 32.06539062 13.31054688 31.51953125 C16.1801441 28.85183187 18.78703816 26.26037794 21 23 C20.20335937 22.28714844 19.40671875 21.57429688 18.5859375 20.83984375 C8.93007883 12.13192078 8.93007883 12.13192078 5.375 7.8125 C4.59125 6.884375 3.8075 5.95625 3 5 C2.34 5 1.68 5 1 5 C-0.43025226 6.64093257 -1.7942239 8.33991003 -3.125 10.0625 C-6.59615108 14.42671422 -10.10646631 18.10037009 -14.46875 21.5625 C-16.27356129 23.0286476 -16.27356129 23.0286476 -17 26 C-17.66 25.01 -18.32 24.02 -19 23 C-18.25 21.0625 -18.25 21.0625 -17 19 C-15.67405895 18.63837971 -14.34061543 18.30271961 -13 18 C-12.67 17.01 -12.34 16.02 -12 15 C-11.01 14.34 -10.02 13.68 -9 13 C-7.38014659 10.94736133 -5.90059589 8.82222619 -4.40234375 6.6796875 C-3.93957031 6.12539062 -3.47679688 5.57109375 -3 5 C-2.34 5 -1.68 5 -1 5 C-0.67 3.35 -0.34 1.7 0 0 Z " fill="#1E1E56" transform="translate(98,113)"/>
<path d="M0 0 C0.495 0.99 0.495 0.99 1 2 C0.40832031 2.02835937 -0.18335938 2.05671875 -0.79296875 2.0859375 C-3.47603289 2.40983105 -5.54087547 2.85959655 -8 4 C-10.30338358 7.06531708 -11.54929074 10.47111207 -13 14 C-13.91444039 15.67942931 -14.85080748 17.34717469 -15.8125 19 C-17.5537354 21.82452326 -17.5537354 21.82452326 -18 25 C-19.62339805 26.70884005 -21.29319053 28.37446717 -23 30 C-23.66 30.66 -24.32 31.32 -25 32 C-25.33 31.67 -25.66 31.34 -26 31 C-26.66 31.66 -27.32 32.32 -28 33 C-29.875 33.875 -29.875 33.875 -32 34 C-34.3125 32.375 -34.3125 32.375 -36 30 C-35.835 29.2575 -35.67 28.515 -35.5 27.75 C-34.81401101 23.97706054 -36.2311717 22.10568728 -38.08984375 18.8671875 C-39 17 -39 17 -39 14 C-39.66 14 -40.32 14 -41 14 C-42.80411967 11.24075815 -43.0127245 10.11027897 -42.625 6.75 C-42.41875 5.8425 -42.2125 4.935 -42 4 C-40.26234216 6.60648676 -38.9509209 9.06535964 -37.6171875 11.88671875 C-37.17246094 12.82451172 -36.72773437 13.76230469 -36.26953125 14.72851562 C-35.80933594 15.70498047 -35.34914063 16.68144531 -34.875 17.6875 C-34.40707031 18.67556641 -33.93914063 19.66363281 -33.45703125 20.68164062 C-32.30258692 23.12010977 -31.15033047 25.55958816 -30 28 C-21.13503901 23.72645307 -17.2467588 15.18293805 -13.02075195 6.72827148 C-12.6568335 6.00454346 -12.29291504 5.28081543 -11.91796875 4.53515625 C-11.59594482 3.879104 -11.2739209 3.22305176 -10.94213867 2.54711914 C-8.61707481 -1.27095023 -3.91295814 -0.06311223 0 0 Z " fill="#201E5C" transform="translate(86,78)"/>
<path d="M0 0 C2.97 0.99 5.94 1.98 9 3 C8.48005241 8.40074598 6.55782932 12.16067514 3.875 16.75 C3.47192627 17.44939697 3.06885254 18.14879395 2.65356445 18.86938477 C-6.24387644 34.12741469 -6.24387644 34.12741469 -9.87890625 35.93359375 C-17.54227887 36.17351518 -25.99218293 26.57337857 -31.19921875 21.72265625 C-31.79347656 21.15417969 -32.38773437 20.58570312 -33 20 C-32.67 18.68 -32.34 17.36 -32 16 C-27.2020202 20.54545455 -27.2020202 20.54545455 -26 23.25 C-25.09725562 25.30277024 -25.09725562 25.30277024 -22.375 25.75 C-21.59125 25.8325 -20.8075 25.915 -20 26 C-20 26.66 -20 27.32 -20 28 C-19.34 28 -18.68 28 -18 28 C-18 28.66 -18 29.32 -18 30 C-15.03 30 -12.06 30 -9 30 C-7.35 26.7 -5.7 23.4 -4 20 C-3.34 20 -2.68 20 -2 20 C-1.34 18.35 -0.68 16.7 0 15 C0.66 15 1.32 15 2 15 C2.33 14.01 2.66 13.02 3 12 C3.66 12 4.32 12 5 12 C5.66 9.03 6.32 6.06 7 3 C4.69 2.67 2.38 2.34 0 2 C0 1.34 0 0.68 0 0 Z " fill="#C11E41" transform="translate(157,93)"/>
<path d="M0 0 C2 2 2 2 2 6 C2.99 6.33 3.98 6.66 5 7 C6.46569415 9.9313883 6.62086218 12.88632266 7.0625 16.125 C7.23910156 17.40632813 7.41570313 18.68765625 7.59765625 20.0078125 C7.73042969 20.99523437 7.86320312 21.98265625 8 23 C8.66 23 9.32 23 10 23 C10 23.99 10 24.98 10 26 C10.66 26 11.32 26 12 26 C12 27.98 12 29.96 12 32 C12.99 32.33 13.98 32.66 15 33 C16.0625 34.9375 16.0625 34.9375 17 37 C17.66 37.66 18.32 38.32 19 39 C18.34 39 17.68 39 17 39 C17.61697319 40.48253267 18.24383896 41.96095174 18.875 43.4375 C19.22304688 44.26121094 19.57109375 45.08492187 19.9296875 45.93359375 C20.8244937 48.15746715 20.8244937 48.15746715 23 49 C23.625 52.0625 23.625 52.0625 24 55 C24.66 55 25.32 55 26 55 C26.20625 55.598125 26.4125 56.19625 26.625 56.8125 C28.50926082 59.81018767 30.81132084 60.61361776 34 62 C34 62.66 34 63.32 34 64 C36.64 63.34 39.28 62.68 42 62 C39.54372427 64.631724 37.44647963 66.81527263 34 68 C32.13671875 67.91796875 32.13671875 67.91796875 30 67 C28.4189063 65.01683084 27.1201848 63.15290638 25.8125 61 C25.42521729 60.37625488 25.03793457 59.75250977 24.63891602 59.10986328 C0 18.82600665 0 18.82600665 0 0 Z " fill="#211E58" transform="translate(20,63)"/>
<path d="M0 0 C0.99 0.33 1.98 0.66 3 1 C-11.37972995 15.57701284 -11.37972995 15.57701284 -18 21 C-18.68835938 21.58910156 -19.37671875 22.17820313 -20.0859375 22.78515625 C-25.14960639 26.91703477 -25.14960639 26.91703477 -28.5625 27.25 C-32.19083215 25.38931684 -35.04505899 22.78462741 -38 20 C-37.67 19.34 -37.34 18.68 -37 18 C-36.01 18.33 -35.02 18.66 -34 19 C-34 19.66 -34 20.32 -34 21 C-32.41986783 21.25028811 -30.83557694 21.47440946 -29.25 21.6875 C-27.92742187 21.87892578 -27.92742187 21.87892578 -26.578125 22.07421875 C-23.44323483 21.98397191 -22.28176413 21.07384637 -20 19 C-20.33 18.34 -20.66 17.68 -21 17 C-19.35 17 -17.7 17 -16 17 C-15.896875 16.360625 -15.79375 15.72125 -15.6875 15.0625 C-15.3471875 14.0415625 -15.3471875 14.0415625 -15 13 C-14.01 12.67 -13.02 12.34 -12 12 C-11.67 11.34 -11.34 10.68 -11 10 C-10.01 10 -9.02 10 -8 10 C-7.7525 9.443125 -7.505 8.88625 -7.25 8.3125 C-5.43760226 4.95956419 -3.46885508 1.73442754 0 0 Z " fill="#1E1C53" transform="translate(128,149)"/>
<path d="M0 0 C0 0.66 0 1.32 0 2 C-17.61237595 7.35318155 -17.61237595 7.35318155 -25.1171875 8.54296875 C-27.31528591 8.96263052 -27.31528591 8.96263052 -30 11 C-32.6875 11.125 -32.6875 11.125 -35 11 C-35.02712351 13.39591038 -35.0468982 15.79150957 -35.0625 18.1875 C-35.07087891 18.86103516 -35.07925781 19.53457031 -35.08789062 20.22851562 C-35.10606538 23.95434131 -34.89299392 27.3788042 -34 31 C-34.66 31 -35.32 31 -36 31 C-36.50780894 28.79344925 -37.00591365 26.58466395 -37.5 24.375 C-37.7784375 23.14523438 -38.056875 21.91546875 -38.34375 20.6484375 C-38.94091621 17.32847772 -39.12409534 14.36091549 -39 11 C-31.80527411 7.43716518 -24.43618809 5.27972943 -16.6875 3.25 C-15.52154297 2.93417969 -14.35558594 2.61835937 -13.15429688 2.29296875 C-4.53332995 0 -4.53332995 0 0 0 Z " fill="#272357" transform="translate(55,31)"/>
<path d="M0 0 C0.33 0 0.66 0 1 0 C1.03963867 0.73935791 1.07927734 1.47871582 1.12011719 2.24047852 C1.89136338 15.93435947 2.66685778 28.93286799 7 42 C7.68472655 44.32853924 8.34250831 46.6635563 9 49 C8.34 49 7.68 49 7 49 C7 48.34 7 47.68 7 47 C6.34 47 5.68 47 5 47 C0.46705129 39.83501655 -0.16135065 33.55981468 -0.09765625 25.09765625 C-0.0962413 24.3750914 -0.09482635 23.65252655 -0.09336853 22.9080658 C-0.08782225 20.62616635 -0.0752802 18.34436921 -0.0625 16.0625 C-0.05747804 14.50455872 -0.05291636 12.94661588 -0.04882812 11.38867188 C-0.0378705 7.59240919 -0.02064372 3.79622187 0 0 Z " fill="#B72D4C" transform="translate(118,39)"/>
<path d="M0 0 C0.66 0 1.32 0 2 0 C2 1.65 2 3.3 2 5 C1.67 5 1.34 5 1 5 C0.34 8.96 -0.32 12.92 -1 17 C-1.99 17 -2.98 17 -4 17 C-4 19.31 -4 21.62 -4 24 C-1.69 24.66 0.62 25.32 3 26 C3 26.66 3 27.32 3 28 C5.47266765 27.65555119 5.47266765 27.65555119 8 27 C8.33 26.34 8.66 25.68 9 25 C9.66 25.33 10.32 25.66 11 26 C10.01 27.65 9.02 29.3 8 31 C-3.70615034 28.10933941 -3.70615034 28.10933941 -8 25 C-5.56541729 16.58782396 -2.79856214 8.29613284 0 0 Z " fill="#B33452" transform="translate(159,59)"/>
<path d="M0 0 C25.80611536 0.40305768 25.80611536 0.40305768 35 5 C37.1519437 8.22791555 37.20086443 9.28400809 37 13 C36.01 13 35.02 13 34 13 C33.67 13.66 33.34 14.32 33 15 C33.33 12.69 33.66 10.38 34 8 C33.47535156 7.90203125 32.95070312 7.8040625 32.41015625 7.703125 C25.94497925 6.45527054 19.54897224 4.9746904 13.15454102 3.40917969 C8.78099656 2.35550923 4.46353086 1.56744757 0 1 C0 0.67 0 0.34 0 0 Z " fill="#B93554" transform="translate(127,43)"/>
<path d="M0 0 C0 3.07868526 -0.43386841 4.35430616 -1.75 7.0625 C-2.07484375 7.75472656 -2.3996875 8.44695312 -2.734375 9.16015625 C-4.2395555 11.34824272 -5.62060544 11.91186225 -8 13 C-8.33 13.66 -8.66 14.32 -9 15 C-9.66 15 -10.32 15 -11 15 C-11.433125 16.2065625 -11.433125 16.2065625 -11.875 17.4375 C-13 20 -13 20 -15 21 C-15.598125 21.66 -16.19625 22.32 -16.8125 23 C-19.26524246 25.24250739 -20.74940783 25.63882309 -24 26 C-24 26.66 -24 27.32 -24 28 C-24.99 28 -25.98 28 -27 28 C-27.99 30.475 -27.99 30.475 -29 33 C-29.99 32.01 -30.98 31.02 -32 30 C-29.55520828 27.23632241 -26.96404502 25.27527374 -23.875 23.3125 C-14.25553029 17.00465101 -6.98999049 9.03295873 0 0 Z " fill="#201E57" transform="translate(88,103)"/>
<path d="M0 0 C3.3 0 6.6 0 10 0 C7.08235 1.9451 5.37462715 2.45276317 2 3 C2.95393008 6.39708591 3.91392042 9.79243049 4.875 13.1875 C5.14441406 14.14720703 5.41382813 15.10691406 5.69140625 16.09570312 C5.95566406 17.02705078 6.21992187 17.95839844 6.4921875 18.91796875 C6.73308105 19.77156982 6.97397461 20.6251709 7.22216797 21.50463867 C7.96712891 24.05841266 7.96712891 24.05841266 9.15673828 26.63012695 C10 29 10 29 9 32 C8.01 31.67 7.02 31.34 6 31 C5.0859375 28.234375 5.0859375 28.234375 4.375 24.75 C4.13523437 23.61046875 3.89546875 22.4709375 3.6484375 21.296875 C3.32746094 19.66492188 3.32746094 19.66492188 3 18 C2.80664062 17.03578125 2.61328125 16.0715625 2.4140625 15.078125 C2.27742188 14.39234375 2.14078125 13.7065625 2 13 C0.68 12.67 -0.64 12.34 -2 12 C-1.85904936 10.3745692 -1.71207913 8.74965949 -1.5625 7.125 C-1.48128906 6.22007813 -1.40007813 5.31515625 -1.31640625 4.3828125 C-1 2 -1 2 0 0 Z " fill="#25245B" transform="translate(34,50)"/>
<path d="M0 0 C2.99693138 0.99897713 4.02709413 1.65130253 6 4 C6 4.66 6 5.32 6 6 C7.32 6.33 8.64 6.66 10 7 C10.12375 8.175625 10.12375 8.175625 10.25 9.375 C10.72323153 12.12283152 10.72323153 12.12283152 12.9375 13.25 C13.618125 13.4975 14.29875 13.745 15 14 C15.66 14.33 16.32 14.66 17 15 C17 15.99 17 16.98 17 18 C17.66 18 18.32 18 19 18 C23.76744186 22.30232558 23.76744186 22.30232558 25 26 C25.66 26 26.32 26 27 26 C27 26.66 27 27.32 27 28 C27.99 28.33 28.98 28.66 30 29 C29.67 29.99 29.34 30.98 29 32 C6.09204327 10.97471359 6.09204327 10.97471359 0 2 C0 1.34 0 0.68 0 0 Z " fill="#201E56" transform="translate(59,136)"/>
<path d="M0 0 C3 1 3 1 4.25 2.875 C5 5 5 5 4 8 C3.34 7.01 2.68 6.02 2 5 C2.20625 5.9075 2.4125 6.815 2.625 7.75 C3.0127245 11.11027897 2.80411967 12.24075815 1 15 C-0.32 14.34 -1.64 13.68 -3 13 C-3.33 14.65 -3.66 16.3 -4 18 C-5.32 18.33 -6.64 18.66 -8 19 C-8 19.99 -8 20.98 -8 22 C-8.66 22 -9.32 22 -10 22 C-8.20248446 17.27915654 -6.03862628 12.74793489 -3.875 8.1875 C-3.50246094 7.39923828 -3.12992187 6.61097656 -2.74609375 5.79882812 C-1.83204476 3.86526295 -0.91620158 1.93254612 0 0 Z " fill="#211F61" transform="translate(99,81)"/>
<path d="M0 0 C6.71539173 1.29975324 12.72019113 3.29928888 19 6 C19.18405069 11.23521972 18.57087592 15.90547338 17.3125 21 C17.13750977 21.72823975 16.96251953 22.45647949 16.78222656 23.20678711 C14.94589684 30.61700247 12.55411713 37.8086948 10 45 C9.67 45 9.34 45 9 45 C9 42.36 9 39.72 9 37 C9.99 36.505 9.99 36.505 11 36 C12.17039787 32.73413178 12.84263793 29.3148479 13.625 25.9375 C13.85445312 25.00744141 14.08390625 24.07738281 14.3203125 23.11914062 C15.62297073 17.60222793 16.25358657 12.66565776 16 7 C14.64455078 6.61908203 14.64455078 6.61908203 13.26171875 6.23046875 C12.08222656 5.88628906 10.90273437 5.54210938 9.6875 5.1875 C7.92986328 4.68283203 7.92986328 4.68283203 6.13671875 4.16796875 C3.23926019 3.08908941 1.88536848 2.37542816 0 0 Z " fill="#AF3D59" transform="translate(162,34)"/>
<path d="M0 0 C2.00720923 0.28674418 4.0085944 0.61866701 6 1 C5.67 1.66 5.34 2.32 5 3 C3.68 3 2.36 3 1 3 C0.938125 3.66 0.87625 4.32 0.8125 5 C-0.32910275 9.2151486 -1.98174564 12.79695456 -5 16 C-8.625 16.8125 -8.625 16.8125 -12 16 C-14 13.6875 -14 13.6875 -15 11 C-14.67 10.01 -14.34 9.02 -14 8 C-13.21625 8.825 -12.4325 9.65 -11.625 10.5 C-9.36278736 13.22988506 -9.36278736 13.22988506 -7 13 C-6.57847656 12.14535156 -6.15695313 11.29070312 -5.72265625 10.41015625 C-5.17480469 9.30542969 -4.62695312 8.20070313 -4.0625 7.0625 C-3.24458984 5.40927734 -3.24458984 5.40927734 -2.41015625 3.72265625 C-1 1 -1 1 0 0 Z " fill="#B52848" transform="translate(150,91)"/>
<path d="M0 0 C21.53191489 3 21.53191489 3 32 6 C32 6.33 32 6.66 32 7 C25.13484138 7.26404456 18.74153283 6.25841946 12 5 C12 4.34 12 3.68 12 3 C6.06 3.495 6.06 3.495 0 4 C-0.33 7.96 -0.66 11.92 -1 16 C-0.34 16.33 0.32 16.66 1 17 C0.01 17 -0.98 17 -2 17 C-2.05418326 14.91695462 -2.09287551 12.83350232 -2.125 10.75 C-2.14820312 9.58984375 -2.17140625 8.4296875 -2.1953125 7.234375 C-2.00555501 4.091991 -1.47349202 2.68185744 0 0 Z " fill="#AA3350" transform="translate(126,26)"/>
<path d="M0 0 C12.70491803 7.1147541 12.70491803 7.1147541 14 11 C12.99609375 12.796875 12.99609375 12.796875 11.4375 14.75 C10.88707031 15.44609375 10.33664063 16.1421875 9.76953125 16.859375 C7.21977561 19.9438476 4.63540117 22.98811295 2 26 C1.34 25.34 0.68 24.68 0 24 C5.58796635 16.2613387 5.58796635 16.2613387 8.875 13.125 C9.57625 12.42375 10.2775 11.7225 11 11 C11 10.34 11 9.68 11 9 C10.34 9 9.68 9 9 9 C9 8.34 9 7.68 9 7 C8.236875 6.855625 7.47375 6.71125 6.6875 6.5625 C4 6 4 6 1 5 C0.67 3.35 0.34 1.7 0 0 Z " fill="#1A184C" transform="translate(130,123)"/>
<path d="M0 0 C0.66 0 1.32 0 2 0 C2 3.96 2 7.92 2 12 C1.01 12.33 0.02 12.66 -1 13 C-1.33 13.99 -1.66 14.98 -2 16 C-3.65 16 -5.3 16 -7 16 C-7 15.34 -7 14.68 -7 14 C-7.99 13.67 -8.98 13.34 -10 13 C-9.01 13 -8.02 13 -7 13 C-7 12.34 -7 11.68 -7 11 C-5.02 11 -3.04 11 -1 11 C-1.350625 10.21625 -1.70125 9.4325 -2.0625 8.625 C-2.371875 7.75875 -2.68125 6.8925 -3 6 C-2.67 5.34 -2.34 4.68 -2 4 C-1.34 4 -0.68 4 0 4 C0 2.68 0 1.36 0 0 Z " fill="#C61D3D" transform="translate(169,71)"/>
<path d="M0 0 C1 1 1 1 1.11352539 4.32641602 C1.11336629 5.80225556 1.10767314 7.27810069 1.09765625 8.75390625 C1.0962413 9.52935287 1.09482635 10.3047995 1.09336853 11.10374451 C1.08775345 13.59003494 1.07519846 16.0762366 1.0625 18.5625 C1.05748694 20.24413933 1.0529237 21.92578006 1.04882812 23.60742188 C1.03777913 27.73831566 1.02050445 31.86914276 1 36 C0.67 36 0.34 36 0 36 C0 24.78 0 13.56 0 2 C-0.99 2.33 -1.98 2.66 -3 3 C-8.7510492 3.34184558 -14.33371064 2.98544163 -20 2 C-20 1.67 -20 1.34 -20 1 C-17.60429729 0.8312461 -15.20846637 0.66493164 -12.8125 0.5 C-12.13896484 0.45230469 -11.46542969 0.40460937 -10.77148438 0.35546875 C-3.34957617 -0.15139327 -3.34957617 -0.15139327 0 0 Z " fill="#38345F" transform="translate(96,26)"/>
<path d="M0 0 C0.66 0 1.32 0 2 0 C4.31203927 2.31203927 4.27275091 2.93214375 4.5 6.0625 C4.665 7.361875 4.83 8.66125 5 10 C7.43387753 11.21693876 9.41838846 11.31959896 12.125 11.5625 C13.03507812 11.64628906 13.94515625 11.73007812 14.8828125 11.81640625 C15.93082031 11.90728516 15.93082031 11.90728516 17 12 C17 12.33 17 12.66 17 13 C12.05 13.33 7.1 13.66 2 14 C-0.28062828 10.57905758 -0.21925007 9.31812778 -0.125 5.3125 C-0.10695313 4.31863281 -0.08890625 3.32476562 -0.0703125 2.30078125 C-0.04710938 1.54152344 -0.02390625 0.78226563 0 0 Z " fill="#1D195D" transform="translate(79,50)"/>
<path d="M0 0 C0.91007813 0.00902344 1.82015625 0.01804687 2.7578125 0.02734375 C3.45648438 0.03894531 4.15515625 0.05054687 4.875 0.0625 C4.875 0.7225 4.875 1.3825 4.875 2.0625 C1.575 2.0625 -1.725 2.0625 -5.125 2.0625 C-4.939375 2.990625 -4.75375 3.91875 -4.5625 4.875 C-4.125 8.0625 -4.125 8.0625 -5.125 11.0625 C-2.155 11.5575 -2.155 11.5575 0.875 12.0625 C0.875 12.7225 0.875 13.3825 0.875 14.0625 C-5.875 14.1875 -5.875 14.1875 -8.125 13.0625 C-8.277 3.9425 -8.277 3.9425 -7.125 1.0625 C-4.60024538 -0.19987731 -2.81299534 -0.03606404 0 0 Z " fill="#C31F42" transform="translate(133.125,28.9375)"/>
<path d="M0 0 C0.33 0 0.66 0 1 0 C0.67 12.21 0.34 24.42 0 37 C-0.33 37 -0.66 37 -1 37 C-2.87973069 24.50702061 -4.08090421 12.24271262 0 0 Z " fill="#C11D41" transform="translate(118,31)"/>
<path d="M0 0 C2.97 0.99 5.94 1.98 9 3 C8.49742202 8.59889507 6.32961537 12.55340799 3.5625 17.3125 C3.15451172 18.04017578 2.74652344 18.76785156 2.32617188 19.51757812 C-0.72830031 24.86415015 -0.72830031 24.86415015 -3 26 C-2.67 24.35 -2.34 22.7 -2 21 C-1.34 21 -0.68 21 0 21 C0.12375 20.071875 0.2475 19.14375 0.375 18.1875 C1 15 1 15 3 12 C3.66 12 4.32 12 5 12 C5.66 9.03 6.32 6.06 7 3 C4.69 2.67 2.38 2.34 0 2 C0 1.34 0 0.68 0 0 Z " fill="#A83A53" transform="translate(157,93)"/>
<path d="M0 0 C2.65894779 3.98842169 4.57819076 8.23541735 6.625 12.5625 C7.25535156 13.87637695 7.25535156 13.87637695 7.8984375 15.21679688 C8.29546875 16.05404297 8.6925 16.89128906 9.1015625 17.75390625 C9.46588379 18.52033447 9.83020508 19.2867627 10.20556641 20.07641602 C11 22 11 22 11 24 C10.34 24 9.68 24 9 24 C9 23.01 9 22.02 9 21 C8.01 20.67 7.02 20.34 6 20 C4.25327015 16.5065403 3 13.93154432 3 10 C2.34 10 1.68 10 1 10 C-0.80411967 7.24075815 -1.0127245 6.11027897 -0.625 2.75 C-0.41875 1.8425 -0.2125 0.935 0 0 Z " fill="#232158" transform="translate(44,82)"/>
<path d="M0 0 C0.94875 0.639375 1.8975 1.27875 2.875 1.9375 C5.75287827 3.92620563 5.75287827 3.92620563 8 5 C8 5.66 8 6.32 8 7 C10.64 6.34 13.28 5.68 16 5 C13.54372427 7.631724 11.44647963 9.81527263 8 11 C6 11 6 11 4 10 C1.06644827 6.33306034 0 4.76869466 0 0 Z " fill="#1F1B53" transform="translate(46,120)"/>
<path d="M0 0 C1.98 0 3.96 0 6 0 C5.45970795 8.10438068 2.06395346 15.67746161 -3 22 C-2.49228528 16.03435204 -0.61407872 11.36190101 2 6 C2.66 6 3.32 6 4 6 C2.84826645 3.53199953 1.95216435 1.95216435 0 0 Z " fill="#232156" transform="translate(88,78)"/>
<path d="M0 0 C3.79379058 1.49041773 5.68343758 3.69062512 8 7 C8 7.66 8 8.32 8 9 C9.65 9.33 11.3 9.66 13 10 C13 10.66 13 11.32 13 12 C13.66 12 14.32 12 15 12 C15.33 13.32 15.66 14.64 16 16 C11.53749202 14.54784932 8.65481177 12.2534714 5.1875 9.125 C4.21167969 8.26132813 3.23585938 7.39765625 2.23046875 6.5078125 C0 4 0 4 0 0 Z " fill="#A82F4E" transform="translate(124,109)"/>
<path d="M0 0 C0.66 0 1.32 0 2 0 C2 0.66 2 1.32 2 2 C-1.26827607 2.70005804 -4.53992176 3.38286244 -7.8125 4.0625 C-8.74126953 4.26166016 -9.67003906 4.46082031 -10.62695312 4.66601562 C-11.51962891 4.84970703 -12.41230469 5.03339844 -13.33203125 5.22265625 C-14.56530151 5.48187866 -14.56530151 5.48187866 -15.82348633 5.74633789 C-18 6 -18 6 -21 5 C-18.41596754 2.41596754 -16.40622264 2.69590207 -12.8984375 2.34765625 C-10.45606999 1.90039142 -9.51810593 0.91760749 -8 -1 C-4.34017193 -2.21994269 -3.41884698 -1.49026663 0 0 Z " fill="#27235C" transform="translate(67,44)"/>
<path d="M0 0 C0.33 0.66 0.66 1.32 1 2 C-0.07972738 3.4194169 -1.16395863 4.8354083 -2.25 6.25 C-3.15492187 7.43335937 -3.15492187 7.43335937 -4.078125 8.640625 C-5.93182995 10.91631157 -7.88898954 12.96371558 -10 15 C-10.66 14.67 -11.32 14.34 -12 14 C-11.67 12.68 -11.34 11.36 -11 10 C-9.68 10 -8.36 10 -7 10 C-7.103125 9.2575 -7.20625 8.515 -7.3125 7.75 C-7 5 -7 5 -4.625 2.75 C-2 1 -2 1 0 0 Z " fill="#221F5B" transform="translate(83,101)"/>
<path d="M0 0 C2 2 2 2 2 6 C2.99 6.33 3.98 6.66 5 7 C6.28626135 9.57252271 6.55150367 11.97085528 7 14.8125 C7.59587528 18.55999685 8.23069135 22.28396448 9 26 C6.78313083 23.27193232 5.43922297 20.90982191 4.39453125 17.55859375 C4.00297852 16.31239258 4.00297852 16.31239258 3.60351562 15.04101562 C3.34248047 14.18185547 3.08144531 13.32269531 2.8125 12.4375 C2.53986328 11.57447266 2.26722656 10.71144531 1.98632812 9.82226562 C0 3.41523731 0 3.41523731 0 0 Z " fill="#2E2A5F" transform="translate(20,63)"/>
<path d="M0 0 C0.33 0.99 0.66 1.98 1 3 C3.31 3.33 5.62 3.66 8 4 C6.66958425 12.35010941 6.66958425 12.35010941 3.875 15.0625 C3.25625 15.371875 2.6375 15.68125 2 16 C2.144375 15.443125 2.28875 14.88625 2.4375 14.3125 C3.59483624 9.70663689 3.59483624 9.70663689 4 5 C-0.455 4.01 -0.455 4.01 -5 3 C-3.68 2.34 -2.36 1.68 -1 1 C-0.67 0.67 -0.34 0.34 0 0 Z " fill="#C71D3E" transform="translate(156,92)"/>
<path d="M0 0 C0.33 0.66 0.66 1.32 1 2 C-4.63371008 3.95955133 -10.03405612 4.70923808 -16 4 C-16.99 3.34 -17.98 2.68 -19 2 C-12.56971459 0.67611771 -6.5705166 -0.24794402 0 0 Z " fill="#26245C" transform="translate(75,28)"/>
<path d="M0 0 C5.66666667 5.66666667 11.33333333 11.33333333 17 17 C16.01 17.33 15.02 17.66 14 18 C12 17 12 17 10.6875 14.6875 C8.45967099 11.13947602 5.74174643 8.87087322 2 7 C1.26924352 4.6859378 0.59861742 2.35171131 0 0 Z " fill="#292454" transform="translate(113,105)"/>
<path d="M0 0 C3.14737182 0.69941596 6.02588876 1.76078698 9 3 C9.33 5.31 9.66 7.62 10 10 C9.01 10 8.02 10 7 10 C6.67 10.66 6.34 11.32 6 12 C6.33 9.69 6.66 7.38 7 5 C6.01 5 5.02 5 4 5 C4 4.34 4 3.68 4 3 C3.34 3 2.68 3 2 3 C2 2.34 2 1.68 2 1 C1.34 0.67 0.68 0.34 0 0 Z " fill="#C12C4D" transform="translate(154,46)"/>
<path d="M0 0 C2.27034075 2.94050157 4.30412051 5.96058433 6.25 9.125 C7.06210938 10.42824219 7.06210938 10.42824219 7.890625 11.7578125 C8.25671875 12.49773437 8.6228125 13.23765625 9 14 C8.67 14.66 8.34 15.32 8 16 C5.08887215 14.9664273 4.15662381 14.30889697 2.734375 11.50390625 C2.40953125 10.53324219 2.0846875 9.56257813 1.75 8.5625 C1.41484375 7.59441406 1.0796875 6.62632813 0.734375 5.62890625 C0 3 0 3 0 0 Z " fill="#282256" transform="translate(104,89)"/>
<path d="M0 0 C2.97 0.495 2.97 0.495 6 1 C5.67 1.66 5.34 2.32 5 3 C3.68 3 2.36 3 1 3 C0.67 4.65 0.34 6.3 0 8 C-1.32 8.33 -2.64 8.66 -4 9 C-2.94124926 5.59687262 -1.99097846 2.98646769 0 0 Z " fill="#AB324D" transform="translate(150,91)"/>
<path d="M0 0 C0 0.66 0 1.32 0 2 C-6.37171484 4.12390495 -13.4739925 3.13495783 -20 2 C-20 1.67 -20 1.34 -20 1 C-17.60429729 0.8312461 -15.20846637 0.66493164 -12.8125 0.5 C-12.13896484 0.45230469 -11.46542969 0.40460937 -10.77148438 0.35546875 C-7.17363248 0.10976179 -3.60627694 -0.05601984 0 0 Z " fill="#28265A" transform="translate(96,26)"/>
<path d="M0 0 C1.47906892 -0.02689216 2.95827483 -0.04634621 4.4375 -0.0625 C5.26121094 -0.07410156 6.08492188 -0.08570312 6.93359375 -0.09765625 C9 0 9 0 10 1 C10.07258946 3.18639453 10.08373783 5.37500389 10.0625 7.5625 C10.05347656 8.76003906 10.04445313 9.95757812 10.03515625 11.19140625 C10.02355469 12.11824219 10.01195313 13.04507813 10 14 C9.67 14 9.34 14 9 14 C8.67 10.04 8.34 6.08 8 2 C5.69 2 3.38 2 1 2 C0.67 1.34 0.34 0.68 0 0 Z " fill="#A6344E" transform="translate(110,25)"/>
<path d="M0 0 C0.66 0.33 1.32 0.66 2 1 C0.515 3.475 0.515 3.475 -1 6 C-2.79379098 5.55005243 -4.58498928 5.08975857 -6.375 4.625 C-7.37273437 4.36976562 -8.37046875 4.11453125 -9.3984375 3.8515625 C-12 3 -12 3 -14 1 C-9.71 1.33 -5.42 1.66 -1 2 C-0.67 1.34 -0.34 0.68 0 0 Z " fill="#A63451" transform="translate(168,84)"/>
<path d="M0 0 C2.74708629 4.12062943 3.11949692 6.84276139 3.0625 11.6875 C3.05347656 12.68136719 3.04445313 13.67523438 3.03515625 14.69921875 C3.02355469 15.45847656 3.01195313 16.21773437 3 17 C1.25434889 13.78360346 0.795563 11.67986596 1 8 C0.34 7.67 -0.32 7.34 -1 7 C-0.67 4.69 -0.34 2.38 0 0 Z " fill="#C02140" transform="translate(103,57)"/>
<path d="M0 0 C4.28477792 2.30718811 7.72291137 4.32966073 11 8 C10.01 8.495 10.01 8.495 9 9 C9 8.34 9 7.68 9 7 C8.236875 6.855625 7.47375 6.71125 6.6875 6.5625 C4 6 4 6 1 5 C0.67 3.35 0.34 1.7 0 0 Z " fill="#211E52" transform="translate(130,123)"/>
<path d="M0 0 C0.33 0 0.66 0 1 0 C0.73781251 4.4571874 0.42288711 6.51522698 -2.5625 9.9375 C-3.366875 10.618125 -4.17125 11.29875 -5 12 C-5.99 11.67 -6.98 11.34 -8 11 C-6.38405168 8.95880212 -4.7143618 6.95927063 -3 5 C-2.34 5 -1.68 5 -1 5 C-0.67 3.35 -0.34 1.7 0 0 Z " fill="#1A1851" transform="translate(98,113)"/>
<path d="M0 0 C0.33 0.99 0.66 1.98 1 3 C-1.31 4.98 -3.62 6.96 -6 9 C-6.66 8.67 -7.32 8.34 -8 8 C-8 7.01 -8 6.02 -8 5 C-6.68 5 -5.36 5 -4 5 C-3.566875 4.0409375 -3.566875 4.0409375 -3.125 3.0625 C-2 1 -2 1 0 0 Z " fill="#1C1A58" transform="translate(69,116)"/>
<path d="M0 0 C0.33 0 0.66 0 1 0 C1 1.65 1 3.3 1 5 C3.31 5.66 5.62 6.32 8 7 C8 7.66 8 8.32 8 9 C4.7 8.34 1.4 7.68 -2 7 C-1.34 4.69 -0.68 2.38 0 0 Z " fill="#B92346" transform="translate(154,78)"/>
<path d="M0 0 C2.35729943 2.19138979 4.02057098 4.43931973 5.6875 7.1875 C6.12449219 7.90292969 6.56148437 8.61835937 7.01171875 9.35546875 C7.33785156 9.89816406 7.66398438 10.44085938 8 11 C7.01 11 6.02 11 5 11 C3.61328125 9.609375 3.61328125 9.609375 2.3125 7.75 C1.87550781 7.14671875 1.43851563 6.5434375 0.98828125 5.921875 C0 4 0 4 0 0 Z " fill="#A82B47" transform="translate(127,88)"/>
<path d="M0 0 C4.13621084 3.3810038 7.81316569 6.66590534 11 11 C5.84563204 9.63560848 2.93351599 6.27426385 0 2 C0 1.34 0 0.68 0 0 Z " fill="#282555" transform="translate(83,139)"/>
<path d="M0 0 C0.33 0 0.66 0 1 0 C0.54996653 5.62541841 -0.68441485 8.61487125 -4 13 C-4.33 12.01 -4.66 11.02 -5 10 C-4.67 9.34 -4.34 8.68 -4 8 C-3.34 8 -2.68 8 -2 8 C-1.7834375 6.576875 -1.7834375 6.576875 -1.5625 5.125 C-1 2 -1 2 0 0 Z " fill="#B22E4C" transform="translate(159,106)"/>
<path d="M0 0 C3 1 3 1 4.25 2.875 C5 5 5 5 4 8 C3.34 7.01 2.68 6.02 2 5 C1.01 5 0.02 5 -1 5 C-0.67 3.35 -0.34 1.7 0 0 Z " fill="#262451" transform="translate(99,81)"/>
<path d="M0 0 C0.99 0.99 1.98 1.98 3 3 C1.35 5.31 -0.3 7.62 -2 10 C-2.99 9.67 -3.98 9.34 -5 9 C-3.69791667 7.53515625 -2.39583333 6.0703125 -1.09375 4.60546875 C0.28151241 2.910552 0.28151241 2.910552 0 0 Z " fill="#232158" transform="translate(119,133)"/>
<path d="M0 0 C1.485 0.99 1.485 0.99 3 2 C3 2.66 3 3.32 3 4 C3.99 4 4.98 4 6 4 C6.33 5.32 6.66 6.64 7 8 C5.35 7.67 3.7 7.34 2 7 C2 5.68 2 4.36 2 3 C1.34 3 0.68 3 0 3 C0 2.01 0 1.02 0 0 Z " fill="#CC1A40" transform="translate(129,95)"/>
<path d="M0 0 C0.66 0 1.32 0 2 0 C2.33 3.3 2.66 6.6 3 10 C2.01 10.33 1.02 10.66 0 11 C0 7.37 0 3.74 0 0 Z " fill="#35315F" transform="translate(79,50)"/>
<path d="M0 0 C0.33 0 0.66 0 1 0 C1.5574301 1.93302372 2.09546757 3.87164853 2.625 5.8125 C2.92664063 6.89144531 3.22828125 7.97039062 3.5390625 9.08203125 C4 12 4 12 2 15 C0.53329887 9.77487721 -0.22577402 5.4185766 0 0 Z " fill="#A73C53" transform="translate(103,65)"/>
<path d="M0 0 C2.64 0.33 5.28 0.66 8 1 C8 2.65 8 4.3 8 6 C7.34 5.01 6.68 4.02 6 3 C3.79274927 2.63637182 3.79274927 2.63637182 1.375 2.8125 C0.55773437 2.83957031 -0.25953125 2.86664063 -1.1015625 2.89453125 C-2.04128906 2.94673828 -2.04128906 2.94673828 -3 3 C-2.01 2.67 -1.02 2.34 0 2 C0 1.34 0 0.68 0 0 Z " fill="#2D2E62" transform="translate(73,42)"/>
<path d="M0 0 C1.4370809 -0.05422947 2.87475462 -0.09289723 4.3125 -0.125 C5.11300781 -0.14820312 5.91351563 -0.17140625 6.73828125 -0.1953125 C9 0 9 0 12 2 C7.31034294 3.11658501 4.46236469 2.80619523 0 1 C0 0.67 0 0.34 0 0 Z " fill="#CB1A3C" transform="translate(138,31)"/>
<path d="M0 0 C1.875 0.1875 1.875 0.1875 4 1 C5.25 3.5625 5.25 3.5625 6 6 C4.35 5.67 2.7 5.34 1 5 C0.67 3.35 0.34 1.7 0 0 Z " fill="#18175B" transform="translate(79,137)"/>
<path d="M0 0 C0.99 0.33 1.98 0.66 3 1 C1.515 3.475 1.515 3.475 0 6 C-0.99 5.01 -1.98 4.02 -3 3 C-2.01 2.01 -1.02 1.02 0 0 Z " fill="#1C174B" transform="translate(59,130)"/>
<path d="M0 0 C3.73487777 0.4979837 5.81237635 0.87491756 9 3 C7.3125 3.6875 7.3125 3.6875 5 4 C2.25 2.625 2.25 2.625 0 1 C0 0.67 0 0.34 0 0 Z " fill="#A13048" transform="translate(140,125)"/>
<path d="M0 0 C4.20626034 1.50223584 5.73900021 4.28550034 8 8 C5.04987143 6.63029745 2.4347778 5.17390875 0 3 C0 2.01 0 1.02 0 0 Z " fill="#BA2041" transform="translate(124,109)"/>
<path d="M0 0 C0.33 0.99 0.66 1.98 1 3 C-0.32 4.32 -1.64 5.64 -3 7 C-3.66 6.67 -4.32 6.34 -5 6 C-4.67 4.68 -4.34 3.36 -4 2 C-2.68 2 -1.36 2 0 2 C0 1.34 0 0.68 0 0 Z " fill="#181753" transform="translate(76,109)"/>
<path d="M0 0 C2.6855594 2.6855594 3.06049974 5.37621328 4 9 C3.34 9 2.68 9 2 9 C2 8.34 2 7.68 2 7 C1.34 7 0.68 7 0 7 C0 4.69 0 2.38 0 0 Z " fill="#AB2D48" transform="translate(123,79)"/>
<path d="M0 0 C0.98484375 0.11988281 1.9696875 0.23976562 2.984375 0.36328125 C3.73203125 0.47027344 4.4796875 0.57726563 5.25 0.6875 C5.25 1.0175 5.25 1.3475 5.25 1.6875 C0.3 2.0175 -4.65 2.3475 -9.75 2.6875 C-5.40352612 -0.57235541 -5.0019968 -0.65502339 0 0 Z " fill="#2F2B57" transform="translate(90.75,61.3125)"/>
<path d="M0 0 C0.66 0 1.32 0 2 0 C2 2.31 2 4.62 2 7 C1.01 7.495 1.01 7.495 0 8 C0 6.35 0 4.7 0 3 C-0.66 2.67 -1.32 2.34 -2 2 C-1.34 2 -0.68 2 0 2 C0 1.34 0 0.68 0 0 Z " fill="#CE1C41" transform="translate(161,56)"/>
</svg>
